<svg width="203" height="48" viewBox="0 0 203 48" fill="none" xmlns="http://www.w3.org/2000/svg">
<g clip-path="url(#clip0_8386_40085)">
<path d="M31.0264 31.684H32.0383V25.7604H31.0264V31.684ZM70.3202 25.7604H71.8169V26.7723H71.3321V31.6629H64.5653C64.1648 32.0845 63.5745 32.3586 62.9421 32.3586C62.3308 32.3586 61.7616 32.0845 61.3611 31.6629H37.2451C36.1068 31.6629 35.2003 30.7354 35.2003 29.6181C35.2003 28.5008 36.1279 27.5733 37.2451 27.5733H37.8354V27.1939H38.8472V30.651H45.2768V27.5733H46.2886V30.651H53.3295V29.4284C53.3295 29.1333 53.0976 28.9014 52.8024 28.9014H49.4507L49.0923 27.8895L50.2728 25.7393H51.369L50.2306 27.8895H52.9078C53.6878 27.8895 54.3202 28.5219 54.3202 29.3019V30.651H56.9764V25.7604H57.9882V30.651H60.7708C60.7287 30.5035 60.7287 30.3348 60.7287 30.1873C60.7287 28.9435 61.6984 27.9528 62.921 27.9528C64.1648 27.9528 65.1345 28.9225 65.1345 30.1873C65.1345 30.3559 65.1134 30.5035 65.0923 30.651H67.7695V25.7604H68.7814V30.651H70.2781V25.7604H70.3202ZM37.8354 28.5852H37.2451C36.676 28.5852 36.2122 29.0489 36.2122 29.6181C36.2122 30.1873 36.676 30.651 37.2451 30.651H37.8354V28.5852ZM64.1437 30.1662C64.1437 29.4705 63.6377 28.9646 62.9421 28.9646C62.2675 28.9646 61.7827 29.4916 61.7827 30.1662C61.7827 30.8197 62.2886 31.3467 62.9421 31.3467C63.6167 31.3467 64.1437 30.8619 64.1437 30.1662ZM74.6839 29.6181C74.6839 28.4798 75.6114 27.5733 76.7287 27.5733H77.3189V27.1939H78.3308V30.651H84.2543V27.5733H85.2662V31.684H76.7076C75.6114 31.684 74.6839 30.7564 74.6839 29.6181ZM75.7168 29.6181C75.7168 30.1873 76.1806 30.651 76.7497 30.651H77.34V28.5852H76.7497C76.1806 28.5852 75.7168 29.0489 75.7168 29.6181ZM115.622 31.684H116.634V25.7604H115.622V31.684ZM131.812 26.4561H130.8V26.2663C130.8 26.0344 130.905 25.908 131.2 25.908H131.58V25.5707H131.137C130.568 25.5707 130.21 25.8236 130.21 26.4771V27.0041H131.791V26.4561H131.812ZM119.775 29.6181C119.775 28.4798 120.702 27.5733 121.82 27.5733H122.41V27.1939H123.422V30.651H130.505V27.5733H131.517V30.651H134.974V27.5733H135.986V30.651H139.316H139.337C139.253 30.4613 139.19 30.2294 139.19 29.9976C139.19 29.1333 139.885 28.4376 140.75 28.4376C141.614 28.4376 142.31 29.1333 142.31 29.9976C142.31 30.2294 142.268 30.4402 142.162 30.651H142.204H142.858C142.921 30.4402 142.963 30.2294 142.963 29.9976C142.963 28.7749 141.972 27.7841 140.75 27.7841C140.307 27.7841 139.907 27.9106 139.569 28.1425L139 27.236C139.506 26.9198 140.117 26.7301 140.75 26.7301C142.563 26.7301 144.017 28.1846 144.017 29.9976C144.017 30.2294 143.996 30.4402 143.954 30.651H146.968V25.7604H148.465V26.7723H147.98V31.6629H121.777C120.702 31.684 119.775 30.7564 119.775 29.6181ZM140.159 29.9976C140.159 30.3559 140.455 30.651 140.813 30.651C141.171 30.651 141.466 30.3559 141.466 29.9976C141.466 29.6392 141.171 29.3441 140.813 29.3441C140.455 29.3441 140.159 29.6392 140.159 29.9976ZM120.808 29.6181C120.808 30.1873 121.271 30.651 121.841 30.651H122.431V28.5852H121.841C121.271 28.5852 120.808 29.0489 120.808 29.6181ZM149.266 31.684H150.278V25.7604H149.266V31.684ZM7.52182 32.6748C7.52182 32.9699 7.77478 33.2229 8.06991 33.2229C8.36503 33.2229 8.618 32.9699 8.618 32.6748C8.618 32.3796 8.36503 32.1267 8.06991 32.1267C7.7537 32.1267 7.52182 32.3796 7.52182 32.6748ZM9.27149 32.1267C8.97636 32.1267 8.7234 32.3796 8.7234 32.6748C8.7234 32.9699 8.97636 33.2229 9.27149 33.2229C9.56661 33.2229 9.81958 32.9699 9.81958 32.6748C9.81958 32.3796 9.56661 32.1267 9.27149 32.1267ZM24.8077 26.709C25.1028 26.709 25.3558 26.4561 25.3558 26.1609C25.3558 25.8658 25.1028 25.6128 24.8077 25.6128C24.5126 25.6128 24.2596 25.8658 24.2596 26.1609C24.2596 26.4771 24.5126 26.709 24.8077 26.709ZM45.087 32.1267C44.7919 32.1267 44.5389 32.3796 44.5389 32.6748C44.5389 32.9699 44.7919 33.2229 45.087 33.2229C45.3822 33.2229 45.6351 32.9699 45.6351 32.6748C45.6351 32.3796 45.4032 32.1267 45.087 32.1267ZM46.8367 32.6748C46.8367 32.3796 46.5837 32.1267 46.2886 32.1267C45.9935 32.1267 45.7405 32.3796 45.7405 32.6748C45.7405 32.9699 45.9935 33.2229 46.2886 33.2229C46.5837 33.2229 46.8367 32.991 46.8367 32.6748ZM121.672 26.709C121.967 26.709 122.22 26.4561 122.22 26.1609C122.22 25.8658 121.967 25.6128 121.672 25.6128C121.377 25.6128 121.124 25.8658 121.124 26.1609C121.124 26.4771 121.356 26.709 121.672 26.709ZM122.852 26.709C123.148 26.709 123.401 26.4561 123.401 26.1609C123.401 25.8658 123.148 25.6128 122.852 25.6128C122.557 25.6128 122.304 25.8658 122.304 26.1609C122.304 26.4771 122.557 26.709 122.852 26.709ZM83.5376 32.1267C83.2425 32.1267 82.9895 32.3796 82.9895 32.6748C82.9895 32.9699 83.2425 33.2229 83.5376 33.2229C83.8327 33.2229 84.0857 32.9699 84.0857 32.6748C84.0857 32.3796 83.8538 32.1267 83.5376 32.1267ZM85.2873 32.6748C85.2873 32.3796 85.0343 32.1267 84.7392 32.1267C84.4441 32.1267 84.1911 32.3796 84.1911 32.6748C84.1911 32.9699 84.4441 33.2229 84.7392 33.2229C85.0343 33.2229 85.2873 32.991 85.2873 32.6748ZM134.889 32.1267C134.594 32.1267 134.341 32.3796 134.341 32.6748C134.341 32.9699 134.594 33.2229 134.889 33.2229C135.185 33.2229 135.437 32.9699 135.437 32.6748C135.437 32.3796 135.185 32.1267 134.889 32.1267ZM135.543 32.6748C135.543 32.9699 135.796 33.2229 136.091 33.2229C136.386 33.2229 136.639 32.9699 136.639 32.6748C136.639 32.3796 136.386 32.1267 136.091 32.1267C135.775 32.1267 135.543 32.3796 135.543 32.6748ZM76.5811 26.709C76.8762 26.709 77.1292 26.4561 77.1292 26.1609C77.1292 25.8658 76.8762 25.6128 76.5811 25.6128C76.286 25.6128 76.033 25.8658 76.033 26.1609C76.033 26.4771 76.2649 26.709 76.5811 26.709ZM77.7616 26.709C78.0567 26.709 78.3097 26.4561 78.3097 26.1609C78.3097 25.8658 78.0567 25.6128 77.7616 25.6128C77.4665 25.6128 77.2135 25.8658 77.2135 26.1609C77.2135 26.4771 77.4665 26.709 77.7616 26.709ZM89.7563 28.9857C89.7563 28.2057 89.1239 27.5733 88.3439 27.5733H87.3953L87.1424 28.5852H88.1964C88.4915 28.5852 88.7234 28.8171 88.7234 29.1122V30.651H86.1094V31.6629H89.7352V28.9857H89.7563ZM37.0765 26.709C37.3716 26.709 37.6246 26.4561 37.6246 26.1609C37.6246 25.8658 37.3716 25.6128 37.0765 25.6128C36.7814 25.6128 36.5284 25.8658 36.5284 26.1609C36.5284 26.4771 36.7603 26.709 37.0765 26.709ZM38.257 26.709C38.5521 26.709 38.8051 26.4561 38.8051 26.1609C38.8051 25.8658 38.5521 25.6128 38.257 25.6128C37.9619 25.6128 37.7089 25.8658 37.7089 26.1609C37.7089 26.4771 37.9619 26.709 38.257 26.709ZM2.23064 26.709C2.52577 26.709 2.77873 26.4561 2.77873 26.1609C2.77873 25.8658 2.52577 25.6128 2.23064 25.6128C1.93552 25.6128 1.68256 25.8658 1.68256 26.1609C1.68256 26.4771 1.93552 26.709 2.23064 26.709ZM3.43223 26.709C3.72735 26.709 3.98032 26.4561 3.98032 26.1609C3.98032 25.8658 3.72735 25.6128 3.43223 25.6128C3.1371 25.6128 2.88414 25.8658 2.88414 26.1609C2.88414 26.4771 3.1371 26.709 3.43223 26.709ZM0.354492 29.6181C0.354492 28.4798 1.28203 27.5733 2.39929 27.5733H2.98954V27.1939H4.0014V30.651H8.63908V27.5733H9.65093V31.684H2.37821C1.28203 31.684 0.354492 30.7564 0.354492 29.6181ZM1.36635 29.6181C1.36635 30.1873 1.83012 30.651 2.39929 30.651H2.98954V28.5852H2.39929C1.83012 28.5852 1.36635 29.0489 1.36635 29.6181ZM11.0633 33.2861C10.8736 33.2861 10.6628 33.265 10.5363 33.2229V32.211C10.6839 32.2532 10.8104 32.2532 10.9368 32.2532C11.3374 32.2532 11.4849 32.0424 11.4849 31.5364V27.5522H12.4968V30.63H18.9685V29.4073C18.9685 29.1122 18.7366 28.8803 18.4414 28.8803H15.1318L14.7735 27.8684L15.954 25.7182H17.0501L15.9118 27.8684H18.589C19.369 27.8684 20.0014 28.5008 20.0014 29.2808V30.63H22.8472C22.6786 30.3348 22.5732 29.9765 22.5732 29.597C22.5732 28.4587 23.5007 27.5522 24.618 27.5522H25.2082H25.4823H26.2201V30.63H28.7497V25.7393H30.2465V26.7512H29.7616V31.6418H12.4757C12.4546 32.8012 12.0119 33.2861 11.0633 33.2861ZM23.6061 29.6181C23.6061 30.1873 24.0699 30.651 24.6391 30.651H25.2293V28.5852H24.6391C24.0699 28.5852 23.6061 29.0489 23.6061 29.6181ZM93.087 31.684H92.5179C91.3795 31.684 90.4731 30.7565 90.4731 29.6392C90.4731 28.5219 91.4006 27.5944 92.5179 27.5944H93.1081H93.3821H94.12V30.6721H97.1766L96.2702 28.3533C96.9658 27.742 97.6615 27.3204 98.5047 27.3204C99.3479 27.3204 100.086 27.742 100.76 28.3744L99.8749 30.6932H102.51C103.079 30.6932 103.543 30.2294 103.543 29.6603V26.9831H104.555V29.6181C104.555 30.1873 105.019 30.651 105.588 30.651C106.157 30.651 106.621 30.1873 106.621 29.6181V27.8474H107.632V29.6181C107.632 30.1873 108.096 30.651 108.665 30.651C109.235 30.651 109.698 30.1873 109.698 29.6181V26.9831H110.71V29.6181C110.71 30.1873 111.174 30.651 111.743 30.651H113.324V25.7604H114.821V26.7723H114.399V31.6629H111.806C111.195 31.6629 110.647 31.3889 110.268 30.9673C109.888 31.3889 109.34 31.6629 108.729 31.6629C108.117 31.6629 107.569 31.3889 107.19 30.9673C106.81 31.3889 106.262 31.6629 105.651 31.6629C105.04 31.6629 104.492 31.3889 104.112 30.9673C103.733 31.3889 103.185 31.6629 102.573 31.6629H94.1621C94.0989 32.6115 93.614 33.265 92.3071 33.265C91.9065 33.265 91.6957 33.2229 91.232 33.0964V32.0845C91.5903 32.1899 91.9065 32.2532 92.2227 32.2532C92.7287 32.2532 93.0238 32.1899 93.087 31.684ZM97.4296 28.7749L98.1042 30.651H98.9895L99.6641 28.7538C99.2636 28.4798 98.9684 28.3744 98.5468 28.3744C98.1252 28.3744 97.809 28.5008 97.4296 28.7749ZM93.1081 30.651V28.5852H92.5179C91.9487 28.5852 91.4849 29.0489 91.4849 29.6181C91.4849 30.1873 91.9487 30.651 92.5179 30.651H93.1081Z" fill="#4E4E50"/>
<path d="M8.93433 38.3876V40.7064C8.4284 40.8962 7.79599 41.0227 7.20574 41.0227C6.21497 41.0227 5.32959 40.6854 5.32959 39.6946C5.32959 38.8092 6.08848 38.3454 7.18466 38.3454C7.39547 38.3454 7.66951 38.3665 7.96464 38.4087V38.3454C7.96464 37.9028 7.58519 37.7763 7.0371 37.7763C6.63657 37.7763 6.02524 37.9449 5.6458 38.1346L5.77228 37.1228C6.08848 36.9752 6.61549 36.8277 7.18466 36.8277C8.17544 36.8066 8.93433 37.2282 8.93433 38.3876ZM7.94356 39.2097C7.75383 39.1676 7.50087 39.1254 7.26898 39.1254C6.76305 39.1254 6.34145 39.2519 6.34145 39.6313C6.34145 39.9897 6.72089 40.1162 7.20574 40.1162C7.45871 40.1162 7.71167 40.074 7.92248 40.0108V39.2097H7.94356ZM12.3283 39.9476C12.0331 40.0319 11.8013 40.053 11.5905 40.053C11.0424 40.053 10.8105 39.8421 10.8105 39.1043V36.9541H9.81971V39.3784C9.81971 40.6221 10.5997 41.0016 11.6115 41.0016C12.2861 41.0016 12.7499 40.8962 13.319 40.7064V36.9331H12.3283V39.9476ZM16.966 35.2045H17.9567V40.8118C17.4719 40.9383 16.9238 41.0227 16.3546 41.0227C14.879 41.0227 14.0358 40.1162 14.0358 38.9357C14.0358 37.7552 14.9212 36.8277 16.2703 36.8277C16.4389 36.8277 16.6919 36.8487 16.9449 36.8909V35.2045H16.966ZM16.966 37.8606C16.7341 37.7974 16.5233 37.7763 16.3546 37.7763C15.5746 37.7763 15.0687 38.1557 15.0687 38.9146C15.0687 39.6735 15.5746 40.0319 16.3546 40.0319C16.5443 40.0319 16.7552 40.0108 16.966 39.9476V37.8606ZM19.0318 40.9172H20.0226V36.9541H19.0318V40.9172ZM31.0266 39.9476C30.7314 40.0319 30.4996 40.053 30.2887 40.053C29.7407 40.053 29.5088 39.8421 29.5088 39.1043V36.9541H28.518V39.3784C28.518 40.6221 29.298 41.0016 30.3098 41.0016C30.9844 41.0016 31.4482 40.8962 32.0173 40.7064V36.9331H31.0266V39.9476ZM34.3994 39.3151V37.8817H35.9172V36.9541H34.3994V35.4996H33.4086V36.9541H32.6708V37.8817H33.4086V39.6735C33.4086 40.6221 33.8935 40.9383 34.9897 40.9383H35.9383V40.0108H35.0951C34.5891 40.0108 34.3994 39.8421 34.3994 39.3151ZM38.5312 36.8066C38.3204 36.8066 38.0252 36.8487 37.7301 36.8909V35.2045H36.7393V40.9172H37.7301V37.8395C38.0042 37.7974 38.2782 37.7552 38.489 37.7552C39.0793 37.7552 39.3744 37.966 39.3744 38.7038V40.8962H40.3652V38.4087C40.3862 37.1228 39.5641 36.8066 38.5312 36.8066ZM45.3401 38.9146C45.3401 40.0951 44.4126 41.0016 43.1899 41.0016C41.9673 41.0016 41.0397 40.0951 41.0397 38.9146C41.0397 37.7341 41.9673 36.8066 43.1899 36.8066C44.4126 36.8066 45.3401 37.7341 45.3401 38.9146ZM44.3072 38.9146C44.3072 38.3033 43.8856 37.7763 43.1899 37.7763C42.4943 37.7763 42.0727 38.2822 42.0727 38.9146C42.0727 39.547 42.4943 40.053 43.1899 40.053C43.8856 40.053 44.3072 39.547 44.3072 38.9146ZM49.0924 40.9172H50.0832V36.9541H49.0924V40.9172ZM52.4442 39.3151V37.8817H53.962V36.9541H52.4442V35.4996H51.4534V36.9541H50.7156V37.8817H51.4534V39.6735C51.4534 40.6221 51.9383 40.9383 53.0345 40.9383H53.9831V40.0108H53.1399C52.6339 40.0108 52.4442 39.8421 52.4442 39.3151ZM57.2084 39.8632C56.9133 39.9476 56.6814 39.9686 56.4706 39.9686C55.9225 39.9686 55.6906 39.7578 55.6906 39.02V36.9331H54.6998V39.2941C54.6998 40.601 55.4165 40.9172 56.4284 40.9172C56.6814 40.9172 56.9554 40.8962 57.2295 40.8329V40.9172C57.2295 41.381 56.8078 41.5707 56.1965 41.5707C55.8171 41.5707 55.1847 41.4443 54.8052 41.2756L55.016 42.3086C55.3322 42.414 55.8592 42.4772 56.1544 42.4772C57.7354 42.4772 58.2202 41.9923 58.2202 40.58V36.912H57.2295V39.8632H57.2084ZM61.6774 36.5747V36.9541H60.9396V37.8817H61.6774V40.9383H62.6682V37.8817H64.186V36.9541H62.6682V36.7644C62.6682 36.3428 62.7525 36.132 63.2584 36.132H64.2071V35.2045H63.2584C62.1412 35.2045 61.6774 35.605 61.6774 36.5747ZM68.7393 38.9146C68.7393 40.0951 67.8118 41.0016 66.5891 41.0016C65.3665 41.0016 64.4389 40.0951 64.4389 38.9146C64.4389 37.7341 65.3665 36.8066 66.5891 36.8066C67.7907 36.8066 68.7393 37.7341 68.7393 38.9146ZM67.6853 38.9146C67.6853 38.3033 67.2637 37.7763 66.5681 37.7763C65.8724 37.7763 65.4508 38.2822 65.4508 38.9146C65.4508 39.547 65.8724 40.053 66.5681 40.053C67.2637 40.053 67.6853 39.547 67.6853 38.9146ZM78.3731 36.8066C77.9515 36.8066 77.1926 36.8909 76.5812 37.0174V40.9172H77.572V37.8395C77.8461 37.7974 78.1201 37.7552 78.3309 37.7552C78.9212 37.7552 79.2163 37.966 79.2163 38.7038V40.8962H80.2071V38.4087C80.2071 37.1228 79.3849 36.8066 78.3731 36.8066ZM82.5048 39.3151V37.8817H84.0226V36.9541H82.5048V35.4996H81.514V36.9541H80.7762V37.8817H81.514V39.6735C81.514 40.6221 81.9989 40.9383 83.0951 40.9383H84.0437V40.0108H83.2005C82.6945 40.0108 82.5048 39.8421 82.5048 39.3151ZM88.5338 39.2308H85.3928C85.5193 39.7789 85.962 40.0319 86.5944 40.0319H86.6998C87.1214 40.0319 87.6484 39.8843 87.8592 39.6735L88.3019 40.5589C87.8803 40.7908 87.3533 41.0016 86.5733 41.0016C85.3085 41.0016 84.4021 40.0951 84.4021 38.9146C84.4021 37.692 85.3507 36.8066 86.5101 36.8066C87.7117 36.8066 88.597 37.713 88.5338 39.2308ZM87.5009 38.4087C87.3955 37.9238 87.016 37.6709 86.4679 37.6709C85.9409 37.6709 85.5404 37.9871 85.4139 38.4087H87.5009ZM89.2505 40.9172H90.2413V35.2045H89.2505V40.9172ZM91.2953 40.9172H92.2861V35.2045H91.2953V40.9172ZM97.1768 39.2308H94.0358C94.1623 39.7789 94.605 40.0319 95.2374 40.0319H95.3428C95.7644 40.0319 96.2914 39.8843 96.5022 39.6735L96.9449 40.5589C96.5233 40.7908 95.9963 41.0016 95.2163 41.0016C93.9515 41.0016 93.045 40.0951 93.045 38.9146C93.045 37.692 93.9936 36.8066 95.153 36.8066C96.3546 36.8066 97.24 37.713 97.1768 39.2308ZM96.1438 38.4087C96.0384 37.9238 95.659 37.6709 95.1109 37.6709C94.5839 37.6709 94.1833 37.9871 94.0569 38.4087H96.1438ZM99.8329 37.7763C100.191 37.7763 100.507 37.8817 100.781 38.0292L101.182 37.1439C100.781 36.9331 100.339 36.8277 99.8118 36.8277C98.5891 36.8277 97.6827 37.7341 97.6827 38.9357C97.6827 40.1373 98.5891 41.0227 99.8118 41.0227C100.36 41.0227 100.781 40.9172 101.182 40.7064L100.781 39.8C100.529 39.9476 100.212 40.053 99.8329 40.053C99.1583 40.053 98.6945 39.6103 98.6945 38.9146C98.6945 38.24 99.1372 37.7763 99.8329 37.7763ZM103.164 39.3151V37.8817H104.681V36.9541H103.164V35.4996H102.173V36.9541H101.435V37.8817H102.173V39.6735C102.173 40.6221 102.658 40.9383 103.754 40.9383H104.702V40.0108H103.859C103.353 40.0108 103.164 39.8421 103.164 39.3151ZM107.928 39.9476C107.633 40.0319 107.401 40.053 107.19 40.053C106.642 40.053 106.41 39.8421 106.41 39.1043V36.9541H105.419V39.3784C105.419 40.6221 106.199 41.0016 107.211 41.0016C107.886 41.0016 108.349 40.8962 108.919 40.7064V36.9331H107.928V39.9476ZM113.366 38.3876V40.7064C112.861 40.8962 112.228 41.0227 111.638 41.0227C110.647 41.0227 109.762 40.6854 109.762 39.6946C109.762 38.8092 110.521 38.3454 111.617 38.3454C111.828 38.3454 112.102 38.3665 112.397 38.4087V38.3454C112.397 37.9028 112.017 37.7763 111.469 37.7763C111.069 37.7763 110.457 37.9449 110.078 38.1346L110.204 37.1228C110.521 36.9752 111.069 36.8277 111.617 36.8277C112.629 36.8066 113.366 37.2282 113.366 38.3876ZM112.376 39.2097C112.186 39.1676 111.933 39.1254 111.701 39.1254C111.195 39.1254 110.774 39.2519 110.774 39.6313C110.774 39.9897 111.153 40.1162 111.638 40.1162C111.891 40.1162 112.144 40.074 112.355 40.0108V39.2097H112.376ZM114.357 40.9172H115.348V35.2045H114.357V40.9172ZM130.336 38.9146C130.336 40.0951 129.409 41.0016 128.186 41.0016C126.963 41.0016 126.036 40.0951 126.036 38.9146C126.036 37.7341 126.963 36.8066 128.186 36.8066C129.409 36.8066 130.336 37.7341 130.336 38.9146ZM129.303 38.9146C129.303 38.3033 128.882 37.7763 128.186 37.7763C127.49 37.7763 127.069 38.2822 127.069 38.9146C127.069 39.547 127.49 40.053 128.186 40.053C128.882 40.053 129.303 39.547 129.303 38.9146ZM134.974 38.8935C134.974 40.074 134.088 41.0016 132.739 41.0016C132.571 41.0016 132.339 40.9805 132.065 40.9383V42.4561H131.074V36.9963C131.559 36.8487 132.107 36.7855 132.676 36.7855C134.131 36.8066 134.974 37.713 134.974 38.8935ZM133.962 38.8935C133.962 38.1346 133.456 37.7552 132.676 37.7552C132.486 37.7552 132.276 37.7974 132.065 37.8395V39.9476C132.297 40.0108 132.507 40.0319 132.676 40.0319C133.456 40.0319 133.962 39.6735 133.962 38.8935ZM139.654 39.2308H136.513C136.639 39.7789 137.082 40.0319 137.714 40.0319H137.82C138.241 40.0319 138.768 39.8843 138.979 39.6735L139.422 40.5589C139 40.7908 138.473 41.0016 137.693 41.0016C136.428 41.0016 135.522 40.0951 135.522 38.9146C135.522 37.692 136.471 36.8066 137.63 36.8066C138.81 36.8066 139.696 37.713 139.654 39.2308ZM138.621 38.4087C138.515 37.9238 138.136 37.6709 137.588 37.6709C137.061 37.6709 136.66 37.9871 136.534 38.4087H138.621ZM144.671 39.3151V37.8817H146.189V36.9541H144.671V35.4996H143.68V36.9541H142.942V37.8817H143.68V39.6735C143.68 40.6221 144.165 40.9383 145.261 40.9383H146.21V40.0108H145.388C144.861 40.0108 144.671 39.8421 144.671 39.3151ZM149.309 39.8632C149.013 39.9476 148.781 39.9686 148.571 39.9686C148.023 39.9686 147.791 39.7578 147.791 39.02V36.9331H146.8V39.2941C146.8 40.601 147.517 40.9172 148.529 40.9172C148.782 40.9172 149.056 40.8962 149.309 40.8329V40.9172C149.309 41.381 148.887 41.5707 148.276 41.5707C147.896 41.5707 147.264 41.4443 146.884 41.2756L147.095 42.3086C147.411 42.414 147.938 42.4772 148.233 42.4772C149.814 42.4772 150.299 41.9923 150.299 40.58V36.912H149.309V39.8632ZM69.4561 37.9871V40.9383H70.4468V38.1557C70.4468 37.9871 70.5733 37.8606 70.742 37.8606C71.1214 37.8606 71.7538 37.8606 71.7538 37.8606V36.8909H70.5522C69.962 36.8909 69.4561 37.3757 69.4561 37.9871ZM46.0779 37.9871V40.9383H47.0687V38.1557C47.0687 37.9871 47.1952 37.8606 47.3638 37.8606C47.7433 37.8606 48.3757 37.8606 48.3757 37.8606V36.8909H47.153C46.5628 36.8909 46.0779 37.3757 46.0779 37.9871ZM123.359 37.9871V40.9383H124.349V38.1557C124.349 37.9871 124.476 37.8606 124.644 37.8606C125.024 37.8606 125.656 37.8606 125.656 37.8606V36.8909H124.434C123.843 36.8909 123.359 37.3757 123.359 37.9871ZM140.307 37.9871V40.9383H141.298V38.1557C141.298 37.9871 141.424 37.8606 141.593 37.8606C141.973 37.8606 142.605 37.8606 142.605 37.8606V36.8909H141.382C140.792 36.8909 140.307 37.3757 140.307 37.9871ZM19.5167 35.2466C19.2216 35.2466 18.9686 35.4996 18.9686 35.7947C18.9686 36.0898 19.2216 36.3428 19.5167 36.3428C19.8118 36.3428 20.0648 36.0898 20.0648 35.7947C20.0648 35.4996 19.8329 35.2466 19.5167 35.2466ZM49.5773 35.2466C49.2822 35.2466 49.0292 35.4996 49.0292 35.7947C49.0292 36.0898 49.2822 36.3428 49.5773 36.3428C49.8724 36.3428 50.1254 36.0898 50.1254 35.7947C50.1254 35.4996 49.8935 35.2466 49.5773 35.2466Z" fill="#4E4E50"/>
<path d="M4.73912 39.2941C4.73912 40.3903 3.76943 41.0016 2.48353 41.0016C1.68247 41.0016 0.860337 40.7908 0.375488 40.4957L0.776015 39.5892C1.17654 39.8422 1.87219 40.0319 2.46244 40.0319C3.1581 40.0319 3.68511 39.8 3.68511 39.273C3.68511 38.7882 3.2635 38.6406 2.58893 38.472L2.10408 38.3666C1.07114 38.1136 0.523051 37.5023 0.523051 36.6591C0.523051 35.7315 1.34519 35.0991 2.58893 35.0991C3.30566 35.0991 4.10671 35.3099 4.59156 35.605L4.19103 36.5115C3.76943 36.2375 3.13702 36.0688 2.58893 36.0688C2.04084 36.0688 1.57707 36.2796 1.57707 36.6801C1.57707 37.0596 1.85111 37.2493 2.48353 37.418L2.96837 37.5444C3.93807 37.7763 4.73912 38.2823 4.73912 39.2941ZM25.9881 35.2045L28.0962 40.9173H27.0211L26.5362 39.5682H24.1752L23.6904 40.9173H22.6153L24.7233 35.2045H25.9881ZM26.1989 38.6195L25.3557 36.2375L24.5125 38.6195H26.1989ZM122.852 36.9542C122.852 37.9028 122.178 38.7882 120.765 38.7882H119.627V40.9173H118.615V35.2045H120.765C122.22 35.2045 122.852 36.0477 122.852 36.9542ZM121.777 36.9753C121.777 36.4061 121.377 36.1531 120.534 36.1531H119.627V37.8396H120.534C121.271 37.8396 121.777 37.6288 121.777 36.9753ZM74.5362 40.9173H75.527V35.2045H74.5362V40.9173Z" fill="#006E63"/>
<path d="M194.357 16.7591C195.517 10.8144 196.634 4.78545 191.743 2.40337C183.459 -1.6019 162.357 -1.43326 159.996 9.46529C159.553 11.5522 160.418 15.2413 161.872 18.6563C162.399 15.0094 165.646 9.42313 180.107 8.49559C189.319 7.90534 193.134 11.5944 194.357 16.7591Z" fill="#0065A1"/>
<path d="M202.979 10.6037C202.852 6.53516 198.805 4.11092 194.02 2.65637C194.547 3.12014 195.01 3.62607 195.411 4.2374C196.57 5.98707 196.612 9.48641 196.064 13.1544C192.312 38.8303 182.51 38.3244 181.667 38.3454C192.333 41.9713 196.338 33.0964 196.865 32.1056C197.14 31.5997 203.295 20.1531 202.979 10.6037Z" fill="#006E63"/>
<path d="M183.332 17.6024C183.796 17.5181 184.26 17.4759 184.723 17.4759C186.852 17.4759 188.792 18.298 190.267 19.6261C188.939 16.9067 186.136 15.0095 182.889 15.0095C182.657 15.0095 182.426 15.0095 182.215 15.0306C182.91 14.0398 183.922 13.2598 185.124 12.8804C183.311 12.6274 181.456 13.302 180.212 14.6933C180.212 14.609 180.212 14.5247 180.212 14.4403C180.212 13.3863 179.896 12.4166 179.348 11.5945C178.8 12.4166 178.484 13.3863 178.484 14.4403C178.484 14.5247 178.484 14.609 178.484 14.6933C177.261 13.302 175.406 12.6274 173.572 12.8804C174.752 13.2809 175.764 14.0398 176.481 15.0306C176.249 15.0095 176.017 15.0095 175.806 15.0095C172.56 15.0095 169.756 16.8857 168.428 19.6261C169.883 18.298 171.822 17.4759 173.972 17.4759C174.457 17.4759 174.921 17.5181 175.364 17.6024C173.382 18.6775 171.928 20.5326 171.358 22.7038C172.539 21.1228 174.289 19.9423 176.376 19.5418C176.607 19.4996 176.839 19.4575 177.071 19.4364L179.369 21.7341L181.667 19.4364C181.899 19.4575 182.13 19.4996 182.362 19.5418C184.449 19.9423 186.199 21.1228 187.379 22.7038C186.768 20.5536 185.314 18.6986 183.332 17.6024Z" fill="#006E63"/>
<path d="M180.381 26.4561C180.381 27.0253 179.917 27.5101 179.327 27.5101C178.758 27.5101 178.273 27.0464 178.273 26.4561C178.273 25.8869 178.737 25.4021 179.327 25.4021C179.917 25.4021 180.381 25.8659 180.381 26.4561Z" fill="#006E63"/>
<path d="M180.191 28.8593C180.191 29.3231 179.812 29.7025 179.348 29.7025C178.884 29.7025 178.505 29.3231 178.505 28.8593C178.505 28.3956 178.884 28.0161 179.348 28.0161C179.812 28.0161 180.191 28.3956 180.191 28.8593Z" fill="#006E63"/>
<path d="M180.655 23.5892C180.655 24.327 180.064 24.9172 179.327 24.9172C178.589 24.9172 177.999 24.327 177.999 23.5892C177.999 22.8514 178.589 22.2611 179.327 22.2611C180.064 22.2822 180.655 22.8724 180.655 23.5892Z" fill="#006E63"/>
<path d="M187.864 28.2479C182.784 28.2479 178.188 30.2506 174.794 33.518H176.586C177.05 33.518 177.493 33.3494 177.83 33.0332C180.57 30.6722 184.007 29.049 187.843 28.5852C188.771 28.4798 189.698 28.4376 190.605 28.4587C189.719 28.3112 188.813 28.2479 187.864 28.2479Z" fill="#006E63"/>
<path d="M170.789 28.2479C175.87 28.2479 180.465 30.2506 183.859 33.518H182.067C181.604 33.518 181.161 33.3494 180.824 33.0332C178.083 30.6722 174.647 29.049 170.81 28.5852C169.883 28.4798 168.955 28.4376 168.049 28.4587C168.934 28.3112 169.862 28.2479 170.789 28.2479Z" fill="#006E63"/>
<path d="M158.836 11.8053C157.277 13.3442 154.03 17.1808 154.789 21.7974C155.759 27.7842 169.883 48.0214 180.296 48.0214C185.398 48.0214 189.319 44.2058 193.345 38.2401C184.744 45.8712 163.053 34.4245 158.836 11.8053Z" fill="#00A19B"/>
</g>
<defs>
<clipPath id="clip0_8386_40085">
<rect width="202.646" height="48" fill="white" transform="translate(0.354492 0.000244141)"/>
</clipPath>
</defs>
</svg>
