<svg width="206" height="274" viewBox="0 0 206 274" fill="none" xmlns="http://www.w3.org/2000/svg">
<g clip-path="url(#clip0_7405_127998)">
<path d="M82.5581 0.770424L202.44 34.5232C204.764 35.1746 206.046 37.6672 205.236 39.9404L173.776 127.865C172.581 131.202 168.735 132.731 165.574 131.122L61.3592 77.987C59.6125 77.0964 58.7226 75.1156 59.2207 73.2146L77.4045 3.72163C77.9889 1.46834 80.3134 0.138972 82.5581 0.770424Z" fill="url(#paint0_linear_7405_127998)"/>
<path d="M190.2 81.9483L198.05 108.855L107.749 185.201L0.525024 117.31L61.3592 77.9868L165.714 131.195C168.795 132.764 172.554 131.275 173.716 128.018L190.2 81.9483Z" fill="url(#paint1_linear_7405_127998)"/>
<path d="M80.9908 3.44897L200.308 37.0422L167.547 128.603L62.2889 74.9294L80.9908 3.44897Z" fill="url(#paint2_linear_7405_127998)"/>
<path d="M157.671 134.505L109.256 174.772L11.6691 114.638L11.3503 112.185L59.6989 80.8518L157.359 132.053L157.671 134.505Z" fill="url(#paint3_linear_7405_127998)"/>
<path d="M11.3569 112.185L59.6988 80.8518L157.359 132.053L108.944 172.313L11.3569 112.185Z" fill="url(#paint4_linear_7405_127998)"/>
<path d="M107.749 185.201L198.057 108.848L190.2 81.9485L172.84 130.165" stroke="#41B2AD" stroke-miterlimit="10"/>
<path d="M157.532 131.727L59.8716 80.5261L59.6989 80.8585L59.4996 80.5461L10.6597 112.198L108.977 172.771L157.598 132.338L157.359 132.053L157.532 131.727ZM87.8313 144.216L97.8132 136.579L107.583 142.196L97.6073 150.032L87.8313 144.216ZM39.9079 115.701L49.8034 109.001L58.1647 113.807L48.256 120.673L39.9079 115.701ZM58.7093 102.966L67.0773 107.632L58.8422 113.335L50.4874 108.536L58.7093 102.966ZM49.7702 108.124L41.6678 103.471L49.8698 98.034L57.9788 102.554L49.7702 108.124ZM106.673 128.869L97.242 123.611L107.071 116.286L116.495 121.364L106.673 128.869ZM117.212 121.737L126.942 126.981L117.126 134.698L107.383 129.261L117.212 121.737ZM77.1322 113.242L86.0116 118.194L77.7499 124.203L68.8771 119.105L77.1322 113.242ZM68.1599 118.692L59.5528 113.747L67.7946 108.037L76.4083 112.837L68.1599 118.692ZM86.7222 118.593L95.8739 123.698L87.5989 129.866L78.4472 124.608L86.7222 118.593ZM96.5845 124.09L106.028 129.354L97.7468 135.688L88.3029 130.265L96.5845 124.09ZM96.5314 123.206L87.3864 118.107L97.2088 110.969L106.347 115.894L96.5314 123.206ZM86.6691 117.709L77.803 112.763L87.6188 105.797L96.4849 110.57L86.6691 117.709ZM77.0791 112.365L68.4786 107.566L78.2812 100.772L86.8883 105.405L77.0791 112.365ZM67.7548 107.16L59.4 102.501L69.1826 95.8737L77.544 100.374L67.7548 107.16ZM58.882 114.219L67.4957 119.164L57.567 126.21L48.9599 121.092L58.882 114.219ZM68.1997 119.576L77.0791 124.681L67.1305 131.913L58.2577 126.635L68.1997 119.576ZM77.7897 125.08L86.9547 130.344L76.9928 137.769L67.8344 132.318L77.7897 125.08ZM87.6587 130.75L97.1159 136.18L87.1473 143.811L77.6901 138.188L87.6587 130.75ZM98.4508 136.094L106.739 129.753L116.495 135.197L108.213 141.704L98.4508 136.094ZM117.199 135.589L127.261 141.199L118.979 147.885L108.911 142.103L117.199 135.589ZM117.83 135.09L127.659 127.367L137.687 132.77L127.878 140.694L117.83 135.09ZM128.297 126.861L135.642 121.085L145.65 126.33L138.318 132.252L128.297 126.861ZM127.579 126.483L117.857 121.245L125.208 115.622L134.918 120.713L127.579 126.483ZM117.139 120.859L107.722 115.788L115.074 110.311L124.478 115.243L117.139 120.859ZM107.005 115.396L97.873 110.477L105.218 105.133L114.343 109.919L107.005 115.396ZM97.1491 110.091L88.2896 105.319L95.6282 100.108L104.481 104.747L97.1491 110.091ZM87.5591 104.927L78.9652 100.301L86.2972 95.2223L94.891 99.7289L87.5591 104.927ZM78.2347 99.9017L69.88 95.4018L77.1986 90.4432L85.5534 94.8235L78.2347 99.9017ZM69.1428 95.0096L61.0404 90.6493L68.3458 85.8104L76.4548 90.0577L69.1428 95.0096ZM68.4454 95.4749L58.6695 102.095L50.5671 97.5753L60.3298 91.1079L68.4454 95.4749ZM49.8432 97.1699L41.9799 92.7829L51.7227 86.4684L59.5993 90.7091L49.8432 97.1699ZM49.1459 97.6352L40.9505 103.066L33.0873 98.5524L41.2693 93.2482L49.1459 97.6352ZM40.2532 103.518L30.3976 110.045L22.5476 105.372L32.3833 98.9978L40.2532 103.518ZM40.9771 103.936L49.0861 108.596L39.2039 115.289L31.1148 110.477L40.9771 103.936ZM41.5948 117.576L31.7325 124.309L20.5817 117.436L30.4175 110.922L41.5948 117.576ZM42.2987 117.994L93.3635 148.377L83.395 156.141L32.4231 124.734L42.2987 117.994ZM94.0476 148.783L107.768 156.945L97.7933 165.008L84.0724 156.553L94.0476 148.783ZM98.2914 150.444L108.273 142.595L118.355 148.384L108.379 156.447L98.2914 150.444ZM119.052 148.783L129.466 154.765L119.497 163.054L109.07 156.845L119.052 148.783ZM119.67 148.284L127.958 141.591L138.345 147.387L130.07 154.266L119.67 148.284ZM128.582 141.086L138.398 133.149L148.752 138.726L138.956 146.868L128.582 141.086ZM139.029 132.644L146.368 126.715L156.695 132.126L149.369 138.214L139.029 132.644ZM67.5954 85.4116L60.2966 90.2438L52.4267 86.0098L59.7122 81.2839L67.5954 85.4116ZM21.8502 105.824L29.7069 110.503L19.8844 117.011L12.0477 112.178L21.8502 105.824ZM98.464 165.42L108.453 157.351L118.893 163.559L108.917 171.854L98.464 165.42Z" fill="url(#paint5_radial_7405_127998)"/>
<path opacity="0.4" d="M105.391 28.7137L85.0155 21.7478L77.6437 51.5125L96.8835 59.9739L105.391 28.7137Z" fill="url(#paint6_linear_7405_127998)"/>
<path opacity="0.4" d="M98.7231 35.806L85.3476 31.2329L80.5061 50.7813L93.1378 56.3381L98.7231 35.806Z" fill="url(#paint7_linear_7405_127998)"/>
<path d="M144.78 35.354L111.494 23.9812L99.0817 67.8439L130.322 81.5896L144.78 35.354Z" fill="url(#paint8_linear_7405_127998)"/>
<path d="M133.968 43.5828L116.528 37.6206L110.02 60.6055L126.391 67.804L133.968 43.5828Z" fill="url(#paint9_linear_7405_127998)"/>
<path opacity="0.4" d="M178.604 53.7391L149.35 43.7422L138.139 78.1264L165.395 90.1173L178.604 53.7391Z" fill="url(#paint10_linear_7405_127998)"/>
<path opacity="0.4" d="M169.061 54.4636L150.279 48.0427L143.074 70.1236L160.58 77.8273L169.061 54.4636Z" fill="url(#paint11_linear_7405_127998)"/>
<path opacity="0.4" d="M93.9348 70.8016L75.0868 61.8483L76.6076 55.7L95.6881 64.3675L93.9348 70.8016Z" fill="url(#paint12_linear_7405_127998)"/>
<path opacity="0.4" d="M91.0657 81.3636L72.583 71.945L74.0707 65.9429L92.7725 75.089L91.0657 81.3636Z" fill="url(#paint13_linear_7405_127998)"/>
<path d="M122.911 89.8317L100.689 79.2765L102.542 72.7161L125.069 82.9456L122.911 89.8317Z" fill="url(#paint14_linear_7405_127998)"/>
<path d="M108.187 95.4149L97.6405 90.0376L99.4536 83.6433L110.133 88.8611L108.187 95.4149Z" fill="url(#paint15_linear_7405_127998)"/>
<path opacity="0.4" d="M160.48 102.414L133.942 89.805L136.233 82.7793L163.17 95.0095L160.48 102.414Z" fill="url(#paint16_linear_7405_127998)"/>
<path opacity="0.4" d="M150.665 111.753L130.196 101.317L132.421 94.4778L153.195 104.641L150.665 111.753Z" fill="url(#paint17_linear_7405_127998)"/>
<path d="M129.964 190.366L159.112 159.451C163.874 154.399 171.365 153.043 177.588 156.108C185.498 159.996 188.706 169.594 184.734 177.464L174.447 197.83C174.447 197.83 150.684 216.607 150.332 216.654C149.98 216.7 129.964 190.366 129.964 190.366Z" fill="url(#paint18_linear_7405_127998)"/>
<path d="M80.1075 6.81893L198.522 42.0274L200.308 37.0422L80.9908 3.44897L80.1075 6.81893Z" fill="url(#paint19_linear_7405_127998)"/>
<path d="M33.9108 221.719L126.915 192.127L142.097 243.906L52.7654 273.598" fill="url(#paint20_linear_7405_127998)"/>
<path d="M168.955 207.634L177.774 195.184L184.621 179.976L182.463 176.52L174.733 187.833L182.954 173.15L171.863 160.169L167.527 156.619L158.056 163.891L145.458 177.324L157.053 161.405L152.869 159.438L141.699 168.584L126.915 192.127L137.701 228.598L168.955 207.634Z" fill="url(#paint21_linear_7405_127998)"/>
<path d="M120.035 69.9442L123.017 56.2915L131.172 68.3024L124.81 65.0255L120.035 69.9442Z" fill="url(#paint22_linear_7405_127998)"/>
<path d="M189.602 75.2551L185.644 86.2025L186.527 86.5947L190.678 75.5409L189.602 75.2551Z" fill="url(#paint23_linear_7405_127998)"/>
<path d="M166.252 201.638L154.629 184.642L165.614 169.454L171.864 160.169L182.954 173.143L174.733 187.833L166.252 201.638Z" fill="url(#paint24_linear_7405_127998)"/>
<path d="M145.458 177.324L139.7 181.744L143.917 170.89L152.869 159.438L157.053 161.405L145.458 177.324Z" fill="url(#paint25_linear_7405_127998)"/>
</g>
<defs>
<linearGradient id="paint0_linear_7405_127998" x1="144.745" y1="19.9698" x2="88.1553" y2="155.197" gradientUnits="userSpaceOnUse">
<stop stop-color="#41B2AD"/>
<stop offset="1" stop-color="#41B2AD" stop-opacity="0"/>
</linearGradient>
<linearGradient id="paint1_linear_7405_127998" x1="208.565" y1="173.173" x2="19.4831" y2="50.5004" gradientUnits="userSpaceOnUse">
<stop stop-color="#41B2AD"/>
<stop offset="1" stop-color="#41B2AD" stop-opacity="0"/>
</linearGradient>
<linearGradient id="paint2_linear_7405_127998" x1="209.279" y1="2.43225" x2="64.4166" y2="110.651" gradientUnits="userSpaceOnUse">
<stop stop-color="white"/>
<stop offset="1" stop-color="white" stop-opacity="0"/>
</linearGradient>
<linearGradient id="paint3_linear_7405_127998" x1="152.384" y1="99.7998" x2="12.2487" y2="157.54" gradientUnits="userSpaceOnUse">
<stop stop-color="#41B2AD"/>
<stop offset="1" stop-color="#41B2AD" stop-opacity="0"/>
</linearGradient>
<linearGradient id="paint4_linear_7405_127998" x1="150.756" y1="52.4237" x2="70.4176" y2="136.653" gradientUnits="userSpaceOnUse">
<stop stop-color="white"/>
<stop offset="1" stop-color="white" stop-opacity="0"/>
</linearGradient>
<radialGradient id="paint5_radial_7405_127998" cx="0" cy="0" r="1" gradientUnits="userSpaceOnUse" gradientTransform="translate(84.6919 126.624) rotate(29.2566) scale(61.3016 27.7537)">
<stop stop-color="#41B2AD"/>
<stop offset="1" stop-color="#41B2AD" stop-opacity="0"/>
</radialGradient>
<linearGradient id="paint6_linear_7405_127998" x1="107.158" y1="-5.33947" x2="64.8097" y2="115.413" gradientUnits="userSpaceOnUse">
<stop stop-color="white"/>
<stop offset="1" stop-color="white" stop-opacity="0"/>
</linearGradient>
<linearGradient id="paint7_linear_7405_127998" x1="99.8952" y1="13.4464" x2="72.0862" y2="92.7421" gradientUnits="userSpaceOnUse">
<stop stop-color="white"/>
<stop offset="1" stop-color="white" stop-opacity="0"/>
</linearGradient>
<linearGradient id="paint8_linear_7405_127998" x1="142.683" y1="-9.3186" x2="86.1777" y2="151.801" gradientUnits="userSpaceOnUse">
<stop stop-color="white"/>
<stop offset="1" stop-color="white" stop-opacity="0"/>
</linearGradient>
<linearGradient id="paint9_linear_7405_127998" x1="132.883" y1="20.1699" x2="103.273" y2="104.602" gradientUnits="userSpaceOnUse">
<stop stop-color="white"/>
<stop offset="1" stop-color="white" stop-opacity="0"/>
</linearGradient>
<linearGradient id="paint10_linear_7405_127998" x1="172.998" y1="23.0591" x2="133.376" y2="136.037" gradientUnits="userSpaceOnUse">
<stop stop-color="white"/>
<stop offset="1" stop-color="white" stop-opacity="0"/>
</linearGradient>
<linearGradient id="paint11_linear_7405_127998" x1="165.475" y1="34.7541" x2="140.026" y2="107.32" gradientUnits="userSpaceOnUse">
<stop stop-color="white"/>
<stop offset="1" stop-color="white" stop-opacity="0"/>
</linearGradient>
<linearGradient id="paint12_linear_7405_127998" x1="103.796" y1="22.0243" x2="73.2401" y2="90.0404" gradientUnits="userSpaceOnUse">
<stop stop-color="#41B2AD"/>
<stop offset="1" stop-color="#41B2AD" stop-opacity="0"/>
</linearGradient>
<linearGradient id="paint13_linear_7405_127998" x1="105.427" y1="22.7572" x2="74.8712" y2="90.7733" gradientUnits="userSpaceOnUse">
<stop stop-color="#41B2AD"/>
<stop offset="1" stop-color="#41B2AD" stop-opacity="0"/>
</linearGradient>
<linearGradient id="paint14_linear_7405_127998" x1="131.423" y1="39.6621" x2="100.867" y2="107.678" gradientUnits="userSpaceOnUse">
<stop stop-color="#41B2AD"/>
<stop offset="1" stop-color="#41B2AD" stop-opacity="0"/>
</linearGradient>
<linearGradient id="paint15_linear_7405_127998" x1="127.089" y1="37.7148" x2="96.533" y2="105.731" gradientUnits="userSpaceOnUse">
<stop stop-color="#41B2AD"/>
<stop offset="1" stop-color="#41B2AD" stop-opacity="0"/>
</linearGradient>
<linearGradient id="paint16_linear_7405_127998" x1="167.255" y1="50.5331" x2="136.7" y2="118.549" gradientUnits="userSpaceOnUse">
<stop stop-color="#41B2AD"/>
<stop offset="1" stop-color="#41B2AD" stop-opacity="0"/>
</linearGradient>
<linearGradient id="paint17_linear_7405_127998" x1="165.512" y1="49.7498" x2="134.957" y2="117.766" gradientUnits="userSpaceOnUse">
<stop stop-color="#41B2AD"/>
<stop offset="1" stop-color="#41B2AD" stop-opacity="0"/>
</linearGradient>
<linearGradient id="paint18_linear_7405_127998" x1="154.988" y1="191.12" x2="189.473" y2="154.785" gradientUnits="userSpaceOnUse">
<stop stop-color="#41B2AD"/>
<stop offset="1" stop-color="#41B2AD" stop-opacity="0"/>
</linearGradient>
<linearGradient id="paint19_linear_7405_127998" x1="151.236" y1="-26.2226" x2="131.128" y2="61.6428" gradientUnits="userSpaceOnUse">
<stop stop-color="white"/>
<stop offset="1" stop-color="white" stop-opacity="0"/>
</linearGradient>
<linearGradient id="paint20_linear_7405_127998" x1="195.942" y1="196.234" x2="55.9499" y2="243.613" gradientUnits="userSpaceOnUse">
<stop stop-color="#41B2AD"/>
<stop offset="1" stop-color="#41B2AD" stop-opacity="0"/>
</linearGradient>
<linearGradient id="paint21_linear_7405_127998" x1="171.475" y1="164.743" x2="138.344" y2="213.172" gradientUnits="userSpaceOnUse">
<stop stop-color="#FBD2AE"/>
<stop offset="1" stop-color="#E4A081"/>
</linearGradient>
<linearGradient id="paint22_linear_7405_127998" x1="118.736" y1="71.046" x2="93.0643" y2="98.145" gradientUnits="userSpaceOnUse">
<stop stop-color="#41B2AD"/>
<stop offset="1" stop-color="#41B2AD" stop-opacity="0"/>
</linearGradient>
<linearGradient id="paint23_linear_7405_127998" x1="185.051" y1="81.3129" x2="191.343" y2="80.5085" gradientUnits="userSpaceOnUse">
<stop stop-color="#41B2AD"/>
<stop offset="1" stop-color="#41B2AD" stop-opacity="0"/>
</linearGradient>
<linearGradient id="paint24_linear_7405_127998" x1="188.547" y1="159.376" x2="154.312" y2="197.187" gradientUnits="userSpaceOnUse">
<stop stop-color="#FBD2AE"/>
<stop offset="1" stop-color="#E4A081"/>
</linearGradient>
<linearGradient id="paint25_linear_7405_127998" x1="162.244" y1="146.759" x2="138.5" y2="185.953" gradientUnits="userSpaceOnUse">
<stop stop-color="#FBD2AE"/>
<stop offset="1" stop-color="#E4A081"/>
</linearGradient>
<clipPath id="clip0_7405_127998">
<rect width="204.95" height="272.987" fill="white" transform="translate(0.525024 0.61084)"/>
</clipPath>
</defs>
</svg>
