<svg width="400" height="277" viewBox="0 0 400 277" fill="none" xmlns="http://www.w3.org/2000/svg">
<g opacity="0.4">
<path opacity="0.2" d="M13.2726 276.388H332.879C340.208 276.388 346.151 270.384 346.151 262.98V13.4073C346.151 6.00335 340.208 -0.00012207 332.879 -0.00012207H13.2726C5.94311 -0.00012207 0 6.00335 0 13.4073V262.98C0 270.384 5.94311 276.388 13.2726 276.388Z" fill="#42B3AE"/>
<path opacity="0.2" d="M72.9583 85.5577H7.42285V99.1316H72.9583V85.5577Z" fill="#42B3AE"/>
<path opacity="0.2" d="M144.317 85.5577H78.7812V99.1316H144.317V85.5577Z" fill="#42B3AE"/>
<path opacity="0.4" d="M185.973 85.5577H148.438V99.1316H185.973V85.5577Z" fill="#42B3AE"/>
<path d="M338.96 86.4547H225.225V245.654H338.96V86.4547Z" fill="white"/>
<path opacity="0.2" d="M336.531 88.3405H227.663V122.921H336.531V88.3405Z" fill="#42B3AE"/>
<path opacity="0.2" d="M336.526 126.579V215.296H290.067V242.708H227.659V126.579H336.526Z" fill="#42B3AE"/>
<path d="M338.962 7.69739H7.42285V40.5012H338.962V7.69739Z" fill="white"/>
<path d="M338.962 47.5824H7.42285V80.3862H338.962V47.5824Z" fill="white"/>
<path d="M222.184 104.631H7.42285V245.653H222.184V104.631Z" fill="white"/>
<path opacity="0.4" d="M222.184 150.026H7.42285V195.343H222.184V150.026Z" fill="#42B3AE"/>
<path opacity="0.2" d="M200.185 15.2458H154.818V31.6713H200.185V15.2458Z" fill="#42B3AE"/>
<path opacity="0.2" d="M133.168 15.2458H12.7441V31.6713H133.168V15.2458Z" fill="#42B3AE"/>
<path opacity="0.2" d="M237.142 15.2458H210.496V31.6713H237.142V15.2458Z" stroke="#42B3AE" stroke-width="1.9205" stroke-miterlimit="10"/>
<path opacity="0.4" d="M271.607 15.2458H244.961V31.6713H271.607V15.2458Z" fill="#42B3AE"/>
<path opacity="0.2" d="M322.931 55.7716H260.742V72.197H322.931V55.7716Z" fill="#42B3AE"/>
<path opacity="0.4" d="M259.384 108.714H232.538V118.26H259.384V108.714Z" fill="#42B3AE"/>
<path opacity="0.4" d="M289.425 108.714H262.579V118.26H289.425V108.714Z" fill="#42B3AE"/>
<path opacity="0.4" d="M319.467 108.714H292.621V118.26H319.467V108.714Z" fill="#42B3AE"/>
<path opacity="0.2" d="M250.368 55.7716H105.867V72.197H250.368V55.7716Z" fill="#42B3AE"/>
<path opacity="0.2" d="M83.0334 55.7716H12.7441V72.197H83.0334V55.7716Z" fill="#42B3AE"/>
<path opacity="0.2" d="M333.119 15.2458H279.474V31.6713H333.119V15.2458Z" fill="#42B3AE"/>
<path opacity="0.2" d="M205.68 18.1261H204.24V28.7869H205.68V18.1261Z" fill="#42B3AE"/>
<path opacity="0.4" d="M25.9637 266.454C29.0007 266.454 31.4627 263.967 31.4627 260.9C31.4627 257.832 29.0007 255.345 25.9637 255.345C22.9268 255.345 20.4648 257.832 20.4648 260.9C20.4648 263.967 22.9268 266.454 25.9637 266.454Z" fill="#42B3AE"/>
<path d="M14.5522 265.198C16.9026 265.198 18.808 263.274 18.808 260.899C18.808 258.525 16.9026 256.6 14.5522 256.6C12.2018 256.6 10.2964 258.525 10.2964 260.899C10.2964 263.274 12.2018 265.198 14.5522 265.198Z" fill="white"/>
<path d="M37.3818 265.198C39.7322 265.198 41.6376 263.274 41.6376 260.899C41.6376 258.525 39.7322 256.6 37.3818 256.6C35.0314 256.6 33.126 258.525 33.126 260.899C33.126 263.274 35.0314 265.198 37.3818 265.198Z" fill="white"/>
<path d="M48.7968 265.198C51.1473 265.198 53.0527 263.274 53.0527 260.899C53.0527 258.525 51.1473 256.6 48.7968 256.6C46.4464 256.6 44.541 258.525 44.541 260.899C44.541 263.274 46.4464 265.198 48.7968 265.198Z" fill="white"/>
<path d="M60.207 265.198C62.5574 265.198 64.4628 263.274 64.4628 260.899C64.4628 258.525 62.5574 256.6 60.207 256.6C57.8566 256.6 55.9512 258.525 55.9512 260.899C55.9512 263.274 57.8566 265.198 60.207 265.198Z" fill="white"/>
<path d="M71.622 265.198C73.9725 265.198 75.8779 263.274 75.8779 260.899C75.8779 258.525 73.9725 256.6 71.622 256.6C69.2716 256.6 67.3662 258.525 67.3662 260.899C67.3662 263.274 69.2716 265.198 71.622 265.198Z" fill="white"/>
<path d="M83.0371 265.198C85.3875 265.198 87.2929 263.274 87.2929 260.899C87.2929 258.525 85.3875 256.6 83.0371 256.6C80.6867 256.6 78.7812 258.525 78.7812 260.899C78.7812 263.274 80.6867 265.198 83.0371 265.198Z" fill="white"/>
<path d="M94.4521 265.198C96.8025 265.198 98.7079 263.274 98.7079 260.899C98.7079 258.525 96.8025 256.6 94.4521 256.6C92.1017 256.6 90.1963 258.525 90.1963 260.899C90.1963 263.274 92.1017 265.198 94.4521 265.198Z" fill="white"/>
<path d="M105.867 265.198C108.218 265.198 110.123 263.274 110.123 260.899C110.123 258.525 108.218 256.6 105.867 256.6C103.517 256.6 101.611 258.525 101.611 260.899C101.611 263.274 103.517 265.198 105.867 265.198Z" fill="white"/>
<path d="M113.811 258.547L115.81 260.566L113.811 262.586" stroke="#42B3AE" stroke-width="1.6078" stroke-miterlimit="10" stroke-linecap="round" stroke-linejoin="round"/>
<path opacity="0.4" d="M250.368 55.7719H227.663V72.1973H250.368V55.7719Z" fill="#42B3AE"/>
<path opacity="0.4" d="M164.698 55.7719H148.438V72.1973H164.698V55.7719Z" fill="#42B3AE"/>
</g>
<path d="M359.809 73.0034L298.486 145.016L333.278 203.469L399.999 119.269L359.809 73.0034Z" fill="url(#paint0_linear_223_68112)"/>
<path d="M297.016 145.016C297.016 145.016 345.675 186.769 331.808 203.47C331.808 203.47 319.162 215.039 297.016 145.016Z" fill="url(#paint1_linear_223_68112)"/>
<path d="M247.616 148.11L228.382 167.539L297.439 236.411L316.669 216.982L247.616 148.11Z" fill="url(#paint2_linear_223_68112)"/>
<path d="M260.066 160.53L240.832 179.959L243.178 182.296L262.412 162.867L260.066 160.53Z" fill="url(#paint3_linear_223_68112)"/>
<path d="M298.489 145.016L281.032 154.06L259.391 148.617L254.781 153.77L271.159 170.315L249.869 196.681L256.099 203.915L258.958 204.458L280.298 227.256L294.24 222.92L329.605 180.925C319.091 164.644 315.129 160.117 298.489 145.016Z" fill="url(#paint4_linear_223_68112)"/>
<path d="M186.535 181.112C144.432 174.888 110.303 132.368 110.303 86.1389C110.303 39.9096 144.432 7.47857 186.535 13.7028C228.638 19.927 262.767 62.4471 262.767 108.676C262.767 154.906 228.635 187.337 186.535 181.112ZM252.282 107.128C252.282 67.2564 222.846 30.5842 186.535 25.2176C150.224 19.851 120.788 47.8202 120.788 87.6877C120.788 127.555 150.224 164.231 186.535 169.598C222.846 174.968 252.282 146.999 252.282 107.128Z" fill="url(#paint5_linear_223_68112)"/>
<path d="M193.957 176.806C151.854 170.582 117.725 128.062 117.725 81.8327C117.725 35.6035 151.854 3.17242 193.957 9.39663C236.06 15.6208 270.189 58.1409 270.189 104.37C270.189 150.599 236.06 183.031 193.957 176.806ZM259.704 102.821C259.704 62.9502 230.268 26.278 193.957 20.9114C157.646 15.5449 128.21 43.514 128.21 83.3816C128.21 123.249 157.646 159.925 193.957 165.292C230.268 170.662 259.704 142.693 259.704 102.821Z" fill="url(#paint6_linear_223_68112)"/>
<path d="M187.365 22.3446C150.216 16.8514 120.103 45.4683 120.103 86.2514C120.103 127.042 150.216 164.561 187.365 170.047C224.514 175.54 254.627 146.93 254.627 106.14C254.627 65.3496 224.514 27.8415 187.365 22.3446ZM147.891 127.957C120.214 95.2584 137.459 24.1286 173.87 32.7665C149.564 79.1985 147.891 127.957 147.891 127.957Z" fill="url(#paint7_linear_223_68112)"/>
<path d="M297.545 29.8539C294.282 29.8539 291.051 30.2592 287.855 31.0626C284.66 31.8695 281.604 32.9045 278.688 34.1674L280.562 18.9072C282.922 17.9266 285.562 17.1015 288.479 16.4357C291.395 15.7698 294.902 15.4369 299 15.4369C303.166 15.4369 307.074 16.0521 310.718 17.2788C314.365 18.5056 317.524 20.2607 320.197 22.5405C322.869 24.8203 324.972 27.5741 326.498 30.802C328.024 34.0299 328.791 37.6414 328.791 41.6401C328.791 45.3602 328.164 48.6749 326.917 51.5844C325.667 54.4975 324.001 57.0414 321.916 59.2127C319.831 61.3875 317.384 63.1933 314.572 64.6335C311.76 66.0738 308.79 67.1413 305.667 67.8433V77.4185H291.083V56.6868H292.333C295.109 56.6868 297.785 56.4588 300.354 56.0028C302.923 55.5469 305.179 54.7761 307.125 53.6869C309.07 52.6012 310.614 51.1791 311.76 49.424C312.907 47.6725 313.48 45.5302 313.48 43.0044C313.48 40.9706 313.01 39.1287 312.072 37.4786C311.133 35.832 309.901 34.4461 308.375 33.3206C306.845 32.1988 305.147 31.3376 303.27 30.7405C301.396 30.1543 299.487 29.8539 297.545 29.8539ZM301.5 102.992C300.318 103.412 299.104 103.622 297.854 103.622C296.603 103.622 295.389 103.412 294.207 102.992C293.025 102.572 291.982 101.993 291.083 101.255C290.18 100.517 289.449 99.6085 288.894 98.5193C288.339 97.4337 288.059 96.2214 288.059 94.8897C288.059 93.558 288.335 92.3494 288.894 91.2601C289.449 90.1745 290.177 89.2445 291.083 88.4701C291.986 87.6993 293.025 87.1022 294.207 86.6824C295.385 86.2626 296.603 86.0491 297.854 86.0491C299.104 86.0491 300.318 86.259 301.5 86.6824C302.679 87.1022 303.739 87.6993 304.678 88.4701C305.616 89.2409 306.362 90.1709 306.917 91.2601C307.472 92.3494 307.752 93.558 307.752 94.8897C307.752 96.225 307.472 97.4337 306.917 98.5193C306.362 99.6085 305.616 100.52 304.678 101.255C303.743 101.99 302.683 102.569 301.5 102.992Z" fill="url(#paint8_linear_223_68112)"/>
<path d="M257.485 204.454L273.871 187.869L289.866 208.814L284.231 216.019L273.871 221.718L257.485 204.454Z" fill="url(#paint9_linear_223_68112)"/>
<path d="M246.299 143.08L151.991 236.447L47.8877 131.287L141.258 36.9716C153.427 25.3845 170.25 19.5981 188.835 22.3447C225.98 27.8416 256.094 65.3533 256.094 106.14C256.097 120.202 252.522 132.81 246.299 143.08Z" fill="url(#paint10_linear_223_68112)"/>
<path d="M182.192 140.2V138.238H180.25" stroke="white" stroke-width="1.8109" stroke-miterlimit="10"/>
<path d="M176.033 138.238H135.989" stroke="white" stroke-width="1.8109" stroke-miterlimit="10" stroke-dasharray="11.77 11.77"/>
<path d="M133.883 138.238H131.941V140.2" stroke="white" stroke-width="1.8109" stroke-miterlimit="10"/>
<path d="M131.941 144.459V184.909" stroke="white" stroke-width="1.8109" stroke-miterlimit="10" stroke-dasharray="11.77 11.77"/>
<path d="M131.941 187.04V189.002H133.883" stroke="white" stroke-width="1.8109" stroke-miterlimit="10"/>
<path d="M138.096 189.002H178.143" stroke="white" stroke-width="1.8109" stroke-miterlimit="10" stroke-dasharray="11.77 11.77"/>
<path d="M180.25 189.002H182.192V187.04" stroke="white" stroke-width="1.8109" stroke-miterlimit="10"/>
<path d="M182.193 182.781V142.327" stroke="white" stroke-width="1.8109" stroke-miterlimit="10" stroke-dasharray="11.77 11.77"/>
<path d="M144.47 88.6726V86.7113H142.529" stroke="white" stroke-width="1.8109" stroke-miterlimit="10"/>
<path d="M138.577 86.7113H124.756" stroke="white" stroke-width="1.8109" stroke-miterlimit="10" stroke-dasharray="11.02 11.02"/>
<path d="M122.782 86.7114H120.836V88.6728" stroke="white" stroke-width="1.8109" stroke-miterlimit="10"/>
<path d="M120.836 92.6635V106.625" stroke="white" stroke-width="1.8109" stroke-miterlimit="10" stroke-dasharray="11.02 11.02"/>
<path d="M120.836 108.619V110.584H122.782" stroke="white" stroke-width="1.8109" stroke-miterlimit="10"/>
<path d="M126.729 110.583H140.554" stroke="white" stroke-width="1.8109" stroke-miterlimit="10" stroke-dasharray="11.02 11.02"/>
<path d="M142.529 110.584H144.47V108.619" stroke="white" stroke-width="1.8109" stroke-miterlimit="10"/>
<path d="M144.469 104.631V90.6664" stroke="white" stroke-width="1.8109" stroke-miterlimit="10" stroke-dasharray="11.02 11.02"/>
<path d="M217.244 87.0986V85.1337H215.303" stroke="white" stroke-width="1.8109" stroke-miterlimit="10"/>
<path d="M211.666 85.1337H184.405" stroke="white" stroke-width="1.8109" stroke-miterlimit="10" stroke-dasharray="10.15 10.15"/>
<path d="M182.586 85.1337H180.645V87.0986" stroke="white" stroke-width="1.8109" stroke-miterlimit="10"/>
<path d="M180.645 90.7678V118.31" stroke="white" stroke-width="1.8109" stroke-miterlimit="10" stroke-dasharray="10.15 10.15"/>
<path d="M180.645 120.144V122.105H182.586" stroke="white" stroke-width="1.8109" stroke-miterlimit="10"/>
<path d="M186.221 122.106H213.482" stroke="white" stroke-width="1.8109" stroke-miterlimit="10" stroke-dasharray="10.15 10.15"/>
<path d="M215.303 122.105H217.244V120.144" stroke="white" stroke-width="1.8109" stroke-miterlimit="10"/>
<path d="M217.245 116.472V88.933" stroke="white" stroke-width="1.8109" stroke-miterlimit="10" stroke-dasharray="10.15 10.15"/>
<defs>
<linearGradient id="paint0_linear_223_68112" x1="309.424" y1="176.561" x2="374.245" y2="110.977" gradientUnits="userSpaceOnUse">
<stop stop-color="#42B3AE"/>
<stop offset="1" stop-color="#42B3AE" stop-opacity="0"/>
</linearGradient>
<linearGradient id="paint1_linear_223_68112" x1="391.322" y1="85.0898" x2="476.215" y2="-11.3499" gradientUnits="userSpaceOnUse">
<stop stop-color="#42B3AE"/>
<stop offset="1" stop-color="white"/>
</linearGradient>
<linearGradient id="paint2_linear_223_68112" x1="225.2" y1="140.608" x2="332.954" y2="255.857" gradientUnits="userSpaceOnUse">
<stop stop-color="#42B3AE"/>
<stop offset="1" stop-color="white"/>
</linearGradient>
<linearGradient id="paint3_linear_223_68112" x1="251.622" y1="284.432" x2="251.622" y2="141.96" gradientUnits="userSpaceOnUse">
<stop stop-color="#42B3AE"/>
<stop offset="1" stop-color="white"/>
</linearGradient>
<linearGradient id="paint4_linear_223_68112" x1="249.871" y1="186.133" x2="329.603" y2="186.133" gradientUnits="userSpaceOnUse">
<stop stop-color="#FAD2AE"/>
<stop offset="1" stop-color="#E4A181"/>
</linearGradient>
<linearGradient id="paint5_linear_223_68112" x1="290.843" y1="-50.8516" x2="520.528" y2="-370.788" gradientUnits="userSpaceOnUse">
<stop stop-color="#42B3AE"/>
<stop offset="1" stop-color="white"/>
</linearGradient>
<linearGradient id="paint6_linear_223_68112" x1="167.823" y1="158.127" x2="250.596" y2="-43.7073" gradientUnits="userSpaceOnUse">
<stop stop-color="#42B3AE"/>
<stop offset="1" stop-color="#42B3AE" stop-opacity="0"/>
</linearGradient>
<linearGradient id="paint7_linear_223_68112" x1="146.39" y1="221.807" x2="220.16" y2="0.190592" gradientUnits="userSpaceOnUse">
<stop stop-color="#42B3AE"/>
<stop offset="1" stop-color="#42B3AE" stop-opacity="0"/>
</linearGradient>
<linearGradient id="paint8_linear_223_68112" x1="303.742" y1="2.30872" x2="303.742" y2="162.466" gradientUnits="userSpaceOnUse">
<stop stop-color="#42B3AE"/>
<stop offset="1" stop-color="#42B3AE" stop-opacity="0"/>
</linearGradient>
<linearGradient id="paint9_linear_223_68112" x1="251.32" y1="231.565" x2="288.274" y2="192.03" gradientUnits="userSpaceOnUse">
<stop stop-color="#FAD2AE"/>
<stop offset="1" stop-color="#E4A181"/>
</linearGradient>
<linearGradient id="paint10_linear_223_68112" x1="275.238" y1="7.73634" x2="103.234" y2="178.011" gradientUnits="userSpaceOnUse">
<stop stop-color="#42B3AE"/>
<stop offset="1" stop-color="#42B3AE" stop-opacity="0"/>
</linearGradient>
</defs>
</svg>
