<svg width="384" height="277" viewBox="0 0 384 277" fill="none" xmlns="http://www.w3.org/2000/svg">
<g clip-path="url(#clip0_1692_73952)">
<g opacity="0.4">
<path opacity="0.2" d="M13.2726 276.388H332.879C340.208 276.388 346.151 270.384 346.151 262.98V13.4073C346.151 6.00335 340.208 -0.00012207 332.879 -0.00012207H13.2726C5.94311 -0.00012207 0 6.00335 0 13.4073V262.98C0 270.384 5.94311 276.388 13.2726 276.388Z" fill="#42B3AE"/>
<path opacity="0.2" d="M72.958 85.5577H7.42261V99.1316H72.958V85.5577Z" fill="#42B3AE"/>
<path opacity="0.2" d="M144.317 85.5577H78.7811V99.1316H144.317V85.5577Z" fill="#42B3AE"/>
<path opacity="0.4" d="M185.973 85.5577H148.438V99.1316H185.973V85.5577Z" fill="#42B3AE"/>
<path d="M338.961 86.4547H225.225V245.654H338.961V86.4547Z" fill="white"/>
<path opacity="0.2" d="M336.531 88.3404H227.663V122.921H336.531V88.3404Z" fill="#42B3AE"/>
<path opacity="0.2" d="M336.526 126.579V215.296H290.067V242.708H227.659V126.579H336.526Z" fill="#42B3AE"/>
<path d="M338.962 7.69742H7.42261V40.5012H338.962V7.69742Z" fill="white"/>
<path d="M338.962 47.5824H7.42261V80.3862H338.962V47.5824Z" fill="white"/>
<path d="M222.184 104.631H7.42261V245.653H222.184V104.631Z" fill="white"/>
<path opacity="0.4" d="M222.184 150.025H7.42261V195.343H222.184V150.025Z" fill="#42B3AE"/>
<path opacity="0.2" d="M200.185 15.2457H154.818V31.6711H200.185V15.2457Z" fill="#42B3AE"/>
<path opacity="0.2" d="M133.169 15.2458H12.7444V31.6712H133.169V15.2458Z" fill="#42B3AE"/>
<path opacity="0.2" d="M237.142 15.2457H210.496V31.6711H237.142V15.2457Z" stroke="#42B3AE" stroke-width="1.9205" stroke-miterlimit="10"/>
<path opacity="0.4" d="M271.607 15.2457H244.962V31.6711H271.607V15.2457Z" fill="#42B3AE"/>
<path opacity="0.2" d="M322.931 55.7715H260.742V72.197H322.931V55.7715Z" fill="#42B3AE"/>
<path opacity="0.4" d="M259.384 108.713H232.538V118.26H259.384V108.713Z" fill="#42B3AE"/>
<path opacity="0.4" d="M289.425 108.713H262.579V118.26H289.425V108.713Z" fill="#42B3AE"/>
<path opacity="0.4" d="M319.467 108.713H292.621V118.26H319.467V108.713Z" fill="#42B3AE"/>
<path opacity="0.2" d="M250.368 55.7715H105.867V72.197H250.368V55.7715Z" fill="#42B3AE"/>
<path opacity="0.2" d="M83.0338 55.7715H12.7446V72.197H83.0338V55.7715Z" fill="#42B3AE"/>
<path opacity="0.2" d="M333.119 15.2457H279.474V31.6711H333.119V15.2457Z" fill="#42B3AE"/>
<path opacity="0.2" d="M205.68 18.126H204.24V28.7868H205.68V18.126Z" fill="#42B3AE"/>
<path opacity="0.4" d="M25.9636 266.454C29.0006 266.454 31.4625 263.967 31.4625 260.899C31.4625 257.832 29.0006 255.345 25.9636 255.345C22.9267 255.345 20.4647 257.832 20.4647 260.899C20.4647 263.967 22.9267 266.454 25.9636 266.454Z" fill="#42B3AE"/>
<path d="M14.5521 265.198C16.9025 265.198 18.8079 263.274 18.8079 260.899C18.8079 258.525 16.9025 256.6 14.5521 256.6C12.2017 256.6 10.2963 258.525 10.2963 260.899C10.2963 263.274 12.2017 265.198 14.5521 265.198Z" fill="white"/>
<path d="M37.3817 265.198C39.7321 265.198 41.6375 263.274 41.6375 260.899C41.6375 258.525 39.7321 256.6 37.3817 256.6C35.0312 256.6 33.1259 258.525 33.1259 260.899C33.1259 263.274 35.0312 265.198 37.3817 265.198Z" fill="white"/>
<path d="M48.7968 265.198C51.1473 265.198 53.0527 263.274 53.0527 260.899C53.0527 258.525 51.1473 256.6 48.7968 256.6C46.4464 256.6 44.541 258.525 44.541 260.899C44.541 263.274 46.4464 265.198 48.7968 265.198Z" fill="white"/>
<path d="M60.2069 265.198C62.5573 265.198 64.4627 263.274 64.4627 260.899C64.4627 258.525 62.5573 256.6 60.2069 256.6C57.8565 256.6 55.951 258.525 55.951 260.899C55.951 263.274 57.8565 265.198 60.2069 265.198Z" fill="white"/>
<path d="M71.622 265.198C73.9725 265.198 75.8779 263.274 75.8779 260.899C75.8779 258.525 73.9725 256.6 71.622 256.6C69.2716 256.6 67.3662 258.525 67.3662 260.899C67.3662 263.274 69.2716 265.198 71.622 265.198Z" fill="white"/>
<path d="M83.0368 265.198C85.3873 265.198 87.2927 263.274 87.2927 260.899C87.2927 258.525 85.3873 256.6 83.0368 256.6C80.6864 256.6 78.781 258.525 78.781 260.899C78.781 263.274 80.6864 265.198 83.0368 265.198Z" fill="white"/>
<path d="M94.4521 265.198C96.8025 265.198 98.7079 263.274 98.7079 260.899C98.7079 258.525 96.8025 256.6 94.4521 256.6C92.1017 256.6 90.1963 258.525 90.1963 260.899C90.1963 263.274 92.1017 265.198 94.4521 265.198Z" fill="white"/>
<path d="M105.867 265.198C108.217 265.198 110.123 263.274 110.123 260.899C110.123 258.525 108.217 256.6 105.867 256.6C103.516 256.6 101.611 258.525 101.611 260.899C101.611 263.274 103.516 265.198 105.867 265.198Z" fill="white"/>
<path d="M113.811 258.547L115.81 260.566L113.811 262.586" stroke="#42B3AE" stroke-width="1.6078" stroke-miterlimit="10" stroke-linecap="round" stroke-linejoin="round"/>
<path opacity="0.4" d="M250.368 55.7719H227.663V72.1973H250.368V55.7719Z" fill="#42B3AE"/>
<path opacity="0.4" d="M164.698 55.7719H148.438V72.1973H164.698V55.7719Z" fill="#42B3AE"/>
</g>
<path d="M359.809 73.0035L298.487 145.016L333.278 203.47L400 119.269L359.809 73.0035Z" fill="url(#paint0_linear_1692_73952)"/>
<path d="M297.016 145.016C297.016 145.016 345.675 186.769 331.808 203.47C331.808 203.47 319.162 215.039 297.016 145.016Z" fill="url(#paint1_linear_1692_73952)"/>
<path d="M247.616 148.11L228.382 167.539L297.439 236.411L316.669 216.982L247.616 148.11Z" fill="url(#paint2_linear_1692_73952)"/>
<path d="M260.066 160.53L240.832 179.959L243.179 182.296L262.412 162.867L260.066 160.53Z" fill="url(#paint3_linear_1692_73952)"/>
<path d="M298.489 145.016L281.032 154.06L259.391 148.617L254.781 153.77L271.159 170.315L249.869 196.681L256.099 203.915L258.958 204.458L280.298 227.256L294.24 222.92L329.605 180.925C319.091 164.644 315.129 160.117 298.489 145.016Z" fill="url(#paint4_linear_1692_73952)"/>
<path d="M186.535 181.113C144.432 174.888 110.303 132.368 110.303 86.139C110.303 39.9097 144.432 7.47869 186.535 13.7029C228.639 19.9271 262.768 62.4472 262.768 108.676C262.768 154.906 228.635 187.337 186.535 181.113ZM252.282 107.128C252.282 67.2565 222.846 30.5843 186.535 25.2177C150.225 19.8511 120.789 47.8203 120.789 87.6878C120.789 127.555 150.225 164.231 186.535 169.598C222.846 174.968 252.282 146.999 252.282 107.128Z" fill="url(#paint5_linear_1692_73952)"/>
<path d="M193.957 176.806C151.854 170.582 117.725 128.062 117.725 81.8327C117.725 35.6035 151.854 3.17242 193.957 9.39663C236.06 15.6208 270.189 58.1409 270.189 104.37C270.189 150.599 236.06 183.031 193.957 176.806ZM259.704 102.821C259.704 62.9502 230.268 26.278 193.957 20.9114C157.646 15.5449 128.21 43.514 128.21 83.3816C128.21 123.249 157.646 159.925 193.957 165.292C230.268 170.662 259.704 142.693 259.704 102.821Z" fill="url(#paint6_linear_1692_73952)"/>
<path d="M187.365 22.3447C150.216 16.8514 120.102 45.4683 120.102 86.2514C120.102 127.042 150.216 164.561 187.365 170.047C224.513 175.54 254.627 146.93 254.627 106.14C254.627 65.3496 224.513 27.8415 187.365 22.3447ZM147.891 127.957C120.213 95.2584 137.459 24.1287 173.87 32.7666C149.564 79.1985 147.891 127.957 147.891 127.957Z" fill="url(#paint7_linear_1692_73952)"/>
<path d="M297.546 29.854C294.282 29.854 291.051 30.2593 287.855 31.0627C284.66 31.8697 281.604 32.9046 278.688 34.1676L280.562 18.9074C282.922 17.9267 285.563 17.1016 288.479 16.4358C291.395 15.7699 294.902 15.437 299 15.437C303.166 15.437 307.075 16.0522 310.718 17.2789C314.365 18.5057 317.524 20.2608 320.197 22.5406C322.869 24.8204 324.972 27.5742 326.498 30.8021C328.024 34.03 328.791 37.6415 328.791 41.6402C328.791 45.3603 328.164 48.675 326.917 51.5845C325.667 54.4976 324.001 57.0415 321.916 59.2128C319.831 61.3876 317.385 63.1934 314.572 64.6336C311.76 66.0739 308.791 67.1414 305.667 67.8434V77.4186H291.083V56.6869H292.333C295.11 56.6869 297.786 56.4589 300.354 56.003C302.923 55.547 305.18 54.7762 307.125 53.687C309.07 52.6014 310.614 51.1792 311.76 49.4241C312.907 47.6726 313.48 45.5304 313.48 43.0045C313.48 40.9708 313.011 39.1288 312.072 37.4787C311.133 35.8322 309.901 34.4462 308.375 33.3208C306.845 32.199 305.147 31.3377 303.27 30.7406C301.397 30.1544 299.487 29.854 297.546 29.854ZM301.5 102.992C300.318 103.412 299.104 103.622 297.854 103.622C296.603 103.622 295.389 103.412 294.207 102.992C293.025 102.572 291.982 101.993 291.083 101.255C290.18 100.517 289.449 99.6087 288.894 98.5194C288.339 97.4338 288.06 96.2215 288.06 94.8898C288.06 93.5581 288.335 92.3495 288.894 91.2602C289.449 90.1746 290.177 89.2446 291.083 88.4702C291.986 87.6994 293.025 87.1023 294.207 86.6825C295.385 86.2628 296.603 86.0493 297.854 86.0493C299.104 86.0493 300.318 86.2592 301.5 86.6825C302.679 87.1023 303.739 87.6994 304.678 88.4702C305.617 89.241 306.362 90.171 306.917 91.2602C307.472 92.3495 307.752 93.5581 307.752 94.8898C307.752 96.2251 307.472 97.4338 306.917 98.5194C306.362 99.6087 305.617 100.521 304.678 101.255C303.743 101.99 302.683 102.569 301.5 102.992Z" fill="url(#paint8_linear_1692_73952)"/>
<path d="M257.485 204.454L273.871 187.869L289.866 208.814L284.231 216.019L273.871 221.718L257.485 204.454Z" fill="url(#paint9_linear_1692_73952)"/>
<path d="M246.3 143.08L151.991 236.447L47.8879 131.287L141.258 36.9717C153.427 25.3845 170.25 19.5982 188.835 22.3448C225.981 27.8416 256.094 65.3534 256.094 106.14C256.097 120.202 252.522 132.81 246.3 143.08Z" fill="url(#paint10_linear_1692_73952)"/>
<path d="M182.191 140.2V138.238H180.25" stroke="white" stroke-width="1.8109" stroke-miterlimit="10"/>
<path d="M176.032 138.238H135.989" stroke="white" stroke-width="1.8109" stroke-miterlimit="10" stroke-dasharray="11.77 11.77"/>
<path d="M133.882 138.238H131.941V140.2" stroke="white" stroke-width="1.8109" stroke-miterlimit="10"/>
<path d="M131.941 144.459V184.909" stroke="white" stroke-width="1.8109" stroke-miterlimit="10" stroke-dasharray="11.77 11.77"/>
<path d="M131.941 187.04V189.001H133.882" stroke="white" stroke-width="1.8109" stroke-miterlimit="10"/>
<path d="M138.096 189.002H178.143" stroke="white" stroke-width="1.8109" stroke-miterlimit="10" stroke-dasharray="11.77 11.77"/>
<path d="M180.25 189.001H182.191V187.04" stroke="white" stroke-width="1.8109" stroke-miterlimit="10"/>
<path d="M182.193 182.781V142.327" stroke="white" stroke-width="1.8109" stroke-miterlimit="10" stroke-dasharray="11.77 11.77"/>
<path d="M144.471 88.6726V86.7112H142.529" stroke="white" stroke-width="1.8109" stroke-miterlimit="10"/>
<path d="M138.577 86.7112H124.756" stroke="white" stroke-width="1.8109" stroke-miterlimit="10" stroke-dasharray="11.02 11.02"/>
<path d="M122.782 86.7114H120.837V88.6728" stroke="white" stroke-width="1.8109" stroke-miterlimit="10"/>
<path d="M120.836 92.6634V106.624" stroke="white" stroke-width="1.8109" stroke-miterlimit="10" stroke-dasharray="11.02 11.02"/>
<path d="M120.836 108.619V110.584H122.782" stroke="white" stroke-width="1.8109" stroke-miterlimit="10"/>
<path d="M126.729 110.583H140.554" stroke="white" stroke-width="1.8109" stroke-miterlimit="10" stroke-dasharray="11.02 11.02"/>
<path d="M142.529 110.584H144.471V108.619" stroke="white" stroke-width="1.8109" stroke-miterlimit="10"/>
<path d="M144.469 104.631V90.6663" stroke="white" stroke-width="1.8109" stroke-miterlimit="10" stroke-dasharray="11.02 11.02"/>
<path d="M217.244 87.0986V85.1337H215.303" stroke="white" stroke-width="1.8109" stroke-miterlimit="10"/>
<path d="M211.666 85.1337H184.405" stroke="white" stroke-width="1.8109" stroke-miterlimit="10" stroke-dasharray="10.15 10.15"/>
<path d="M182.586 85.1337H180.645V87.0986" stroke="white" stroke-width="1.8109" stroke-miterlimit="10"/>
<path d="M180.645 90.7678V118.31" stroke="white" stroke-width="1.8109" stroke-miterlimit="10" stroke-dasharray="10.15 10.15"/>
<path d="M180.645 120.144V122.105H182.586" stroke="white" stroke-width="1.8109" stroke-miterlimit="10"/>
<path d="M186.221 122.106H213.483" stroke="white" stroke-width="1.8109" stroke-miterlimit="10" stroke-dasharray="10.15 10.15"/>
<path d="M215.303 122.105H217.244V120.144" stroke="white" stroke-width="1.8109" stroke-miterlimit="10"/>
<path d="M217.245 116.472V88.933" stroke="white" stroke-width="1.8109" stroke-miterlimit="10" stroke-dasharray="10.15 10.15"/>
</g>
<defs>
<linearGradient id="paint0_linear_1692_73952" x1="309.424" y1="176.561" x2="374.245" y2="110.977" gradientUnits="userSpaceOnUse">
<stop stop-color="#42B3AE"/>
<stop offset="1" stop-color="#42B3AE" stop-opacity="0"/>
</linearGradient>
<linearGradient id="paint1_linear_1692_73952" x1="391.322" y1="85.0897" x2="476.215" y2="-11.3499" gradientUnits="userSpaceOnUse">
<stop stop-color="#42B3AE"/>
<stop offset="1" stop-color="white"/>
</linearGradient>
<linearGradient id="paint2_linear_1692_73952" x1="225.2" y1="140.608" x2="332.954" y2="255.857" gradientUnits="userSpaceOnUse">
<stop stop-color="#42B3AE"/>
<stop offset="1" stop-color="white"/>
</linearGradient>
<linearGradient id="paint3_linear_1692_73952" x1="251.622" y1="284.432" x2="251.622" y2="141.96" gradientUnits="userSpaceOnUse">
<stop stop-color="#42B3AE"/>
<stop offset="1" stop-color="white"/>
</linearGradient>
<linearGradient id="paint4_linear_1692_73952" x1="249.871" y1="186.133" x2="329.603" y2="186.133" gradientUnits="userSpaceOnUse">
<stop stop-color="#FAD2AE"/>
<stop offset="1" stop-color="#E4A181"/>
</linearGradient>
<linearGradient id="paint5_linear_1692_73952" x1="290.843" y1="-50.8515" x2="520.528" y2="-370.787" gradientUnits="userSpaceOnUse">
<stop stop-color="#42B3AE"/>
<stop offset="1" stop-color="white"/>
</linearGradient>
<linearGradient id="paint6_linear_1692_73952" x1="167.823" y1="158.127" x2="250.596" y2="-43.7073" gradientUnits="userSpaceOnUse">
<stop stop-color="#42B3AE"/>
<stop offset="1" stop-color="#42B3AE" stop-opacity="0"/>
</linearGradient>
<linearGradient id="paint7_linear_1692_73952" x1="146.39" y1="221.807" x2="220.16" y2="0.190653" gradientUnits="userSpaceOnUse">
<stop stop-color="#42B3AE"/>
<stop offset="1" stop-color="#42B3AE" stop-opacity="0"/>
</linearGradient>
<linearGradient id="paint8_linear_1692_73952" x1="303.742" y1="2.30884" x2="303.742" y2="162.467" gradientUnits="userSpaceOnUse">
<stop stop-color="#42B3AE"/>
<stop offset="1" stop-color="#42B3AE" stop-opacity="0"/>
</linearGradient>
<linearGradient id="paint9_linear_1692_73952" x1="251.32" y1="231.565" x2="288.274" y2="192.03" gradientUnits="userSpaceOnUse">
<stop stop-color="#FAD2AE"/>
<stop offset="1" stop-color="#E4A181"/>
</linearGradient>
<linearGradient id="paint10_linear_1692_73952" x1="275.239" y1="7.7364" x2="103.235" y2="178.011" gradientUnits="userSpaceOnUse">
<stop stop-color="#42B3AE"/>
<stop offset="1" stop-color="#42B3AE" stop-opacity="0"/>
</linearGradient>
<clipPath id="clip0_1692_73952">
<rect width="384" height="277" fill="white"/>
</clipPath>
</defs>
</svg>
