<svg width="1600" height="376" viewBox="0 0 1600 376" fill="none" xmlns="http://www.w3.org/2000/svg">
<path d="M0 0H1600V376H0V0Z" fill="url(#paint0_linear_8038_143079)"/>
<mask id="mask0_8038_143079" style="mask-type:luminance" maskUnits="userSpaceOnUse" x="22" y="82" width="552" height="294">
<path d="M22 82V376H573.561L565.175 82H22Z" fill="white"/>
</mask>
<g mask="url(#mask0_8038_143079)">
<path d="M5.54028 810.064L5.43671 809.547C187.116 776.834 393.123 334.592 393.02 105.189C393.02 67.507 387.43 35.6225 375.421 12.3303C330.493 -75.1451 92.3945 -162.931 -131.315 -162.827C-313.719 -162.827 -486.496 -104.649 -537.842 58.9148C-544.882 81.2754 -548.194 107.363 -548.194 135.831C-548.194 258.089 -486.91 427.554 -392.395 566.375C-297.984 705.301 -170.239 813.48 -37.6281 813.48C-23.3421 813.48 -8.9527 812.238 5.43671 809.65L5.54028 810.064L5.6438 810.582C-8.84918 813.17 -23.2386 814.516 -37.6281 814.516C-304.091 814.308 -549.229 380.969 -549.229 135.831C-549.229 107.156 -545.917 81.0683 -538.774 58.6042C-487.324 -105.58 -313.926 -163.863 -131.315 -163.863C92.7051 -163.759 330.804 -76.3873 376.353 11.8127C388.465 35.4155 394.055 67.4035 394.055 105.189C393.952 335.006 188.359 777.248 5.6438 810.582L5.54028 810.064Z" fill="url(#paint1_linear_8038_143079)"/>
</g>
<mask id="mask1_8038_143079" style="mask-type:luminance" maskUnits="userSpaceOnUse" x="22" y="82" width="552" height="294">
<path d="M22 82V376H573.561L565.175 82H22Z" fill="white"/>
</mask>
<g mask="url(#mask1_8038_143079)">
<path d="M272.107 738.427L271.693 738.117C287.325 712.237 294.364 677.868 294.364 638.115C294.468 418.651 81.5248 34.2767 -60.9203 -1.43804C-68.6843 -3.40494 -77.2766 -4.33661 -86.5935 -4.33661C-165.787 -4.33661 -299.847 63.0556 -414.031 162.539C-528.318 262.127 -622.522 393.702 -622.522 521.861C-622.522 566.686 -611.032 611.2 -584.737 653.747C-513.825 768.966 -258.439 869.899 -39.0773 869.899C94.5685 869.899 214.653 832.425 271.693 738.22L272.107 738.427L272.521 738.738C215.171 833.46 94.672 870.934 -39.0773 870.934C-258.646 870.934 -514.136 770.001 -585.565 654.368C-611.963 611.614 -623.558 566.893 -623.558 521.861C-623.454 264.508 -246.016 -5.26831 -86.697 -5.37183C-77.2766 -5.37183 -68.5808 -4.44015 -60.7132 -2.47325C82.6636 33.8627 295.192 418.133 295.296 638.115C295.296 678.075 288.256 712.651 272.521 738.738L272.107 738.427Z" fill="url(#paint2_linear_8038_143079)"/>
</g>
<defs>
<linearGradient id="paint0_linear_8038_143079" x1="-1.69255e-05" y1="88.0001" x2="1600" y2="352" gradientUnits="userSpaceOnUse">
<stop offset="0.25" stop-color="#F2F7F6"/>
<stop offset="1" stop-color="#F2F7F6" stop-opacity="0"/>
</linearGradient>
<linearGradient id="paint1_linear_8038_143079" x1="279.026" y1="584.001" x2="-415.638" y2="-110.663" gradientUnits="userSpaceOnUse">
<stop stop-color="#41ACA7"/>
<stop offset="0.2435" stop-color="#34A8A1"/>
<stop offset="0.9298" stop-color="#009D93"/>
<stop offset="1" stop-color="#009D93"/>
</linearGradient>
<linearGradient id="paint2_linear_8038_143079" x1="191.814" y1="828.369" x2="-447.043" y2="189.512" gradientUnits="userSpaceOnUse">
<stop stop-color="#41ACA7"/>
<stop offset="0.2435" stop-color="#34A8A1"/>
<stop offset="0.9298" stop-color="#009D93"/>
<stop offset="1" stop-color="#009D93"/>
</linearGradient>
</defs>
</svg>
