<svg width="16" height="16" viewBox="0 0 16 16" fill="none" xmlns="http://www.w3.org/2000/svg">
<g clip-path="url(#clip0_6023_15199)">
<path fill-rule="evenodd" clip-rule="evenodd" d="M0.800008 4.7998C1.24184 4.7998 1.60002 5.15798 1.60002 5.59981V14.3999H10.4001C10.842 14.3999 11.2001 14.7581 11.2001 15.1999C11.2001 15.6418 10.842 15.9999 10.4001 15.9999H1.60002C0.716351 15.9999 0 15.2836 0 14.3999V5.59981C0 5.15798 0.35818 4.7998 0.800008 4.7998Z" fill="#00564C"/>
<path fill-rule="evenodd" clip-rule="evenodd" d="M14.4001 1.60002H4.79997V11.2001H14.4001V1.60002ZM4.79997 0H14.4001C15.2838 0 16.0001 0.716351 16.0001 1.60002V11.2001C16.0001 12.0838 15.2838 12.8001 14.4001 12.8001H4.79997C3.9163 12.8001 3.19995 12.0838 3.19995 11.2001V1.60002C3.19995 0.716351 3.9163 0 4.79997 0Z" fill="#00564C"/>
<path fill-rule="evenodd" clip-rule="evenodd" d="M9.60006 3.20068C10.0419 3.20068 10.4001 3.55886 10.4001 4.00069V8.80074C10.4001 9.24259 10.0419 9.60075 9.60006 9.60075C9.15821 9.60075 8.80005 9.24259 8.80005 8.80074V4.00069C8.80005 3.55886 9.15821 3.20068 9.60006 3.20068Z" fill="#00564C"/>
<path fill-rule="evenodd" clip-rule="evenodd" d="M6.40015 6.40011C6.40015 5.95828 6.75831 5.6001 7.20015 5.6001H12.0002C12.442 5.6001 12.8002 5.95828 12.8002 6.40011C12.8002 6.84195 12.442 7.20011 12.0002 7.20011H7.20015C6.75831 7.20011 6.40015 6.84195 6.40015 6.40011Z" fill="#00564C"/>
</g>
<defs>
<clipPath id="clip0_6023_15199">
<rect width="16" height="16" fill="white"/>
</clipPath>
</defs>
</svg>
