<svg width="16" height="16" viewBox="0 0 16 16" fill="none" xmlns="http://www.w3.org/2000/svg">
<g clip-path="url(#clip0_5875_16559)">
<path d="M5.24008 2.44618L3.43468 0.640778C3.38774 0.593857 3.32894 0.560558 3.26456 0.544433C3.20017 0.528308 3.13262 0.529961 3.0691 0.549217C3.00558 0.568473 2.94848 0.604608 2.90389 0.65377C2.8593 0.702932 2.82888 0.763275 2.8159 0.828365L2.41256 2.84504L0.395889 3.24837C0.330793 3.26135 0.270441 3.29175 0.221271 3.33634C0.1721 3.38093 0.135955 3.43803 0.116691 3.50155C0.0974277 3.56507 0.0957678 3.63263 0.111889 3.69702C0.12801 3.76141 0.161307 3.82021 0.208229 3.86716L2.01385 5.67241C2.08262 5.74114 2.17585 5.77978 2.27308 5.77985C2.29737 5.77988 2.3216 5.77742 2.34539 5.77251L4.40855 5.35935L7.54173 8.4926C7.61078 8.55993 7.70357 8.59735 7.80001 8.59674C7.89645 8.59614 7.98877 8.55756 8.05697 8.48937C8.12517 8.42118 8.16376 8.32887 8.16438 8.23243C8.16499 8.13599 8.12759 8.04319 8.06027 7.97413L4.92702 4.84088L5.34033 2.77772C5.35223 2.71847 5.34931 2.65721 5.33182 2.59936C5.31433 2.54152 5.28282 2.4889 5.24008 2.44618ZM2.39335 5.01498L1.21172 3.83262L2.60367 3.55454L3.78544 4.73624L2.39335 5.01498ZM4.30391 4.21777L3.12228 3.036L3.40044 1.64405L4.58265 2.82575L4.30391 4.21777ZM4.10913 6.61578C3.73013 7.47854 3.66455 8.44663 3.92374 9.35263C4.18293 10.2586 4.75059 11.0456 5.52854 11.5773C6.3065 12.1091 7.24584 12.3523 8.18411 12.2649C9.12238 12.1774 10.0006 11.7648 10.6669 11.0984C11.3332 10.432 11.7456 9.55373 11.8329 8.61544C11.9202 7.67715 11.6768 6.73786 11.1449 5.95999C10.613 5.18213 9.82594 4.61462 8.9199 4.35559C8.01386 4.09656 7.04578 4.16231 6.18308 4.54146L6.12119 4.4795L6.27277 3.72255C7.29499 3.37395 8.40512 3.38167 9.4224 3.74445C10.4397 4.10723 11.3042 4.8037 11.8752 5.72046C12.4461 6.63722 12.69 7.72028 12.5669 8.79327C12.4439 9.86627 11.9612 10.866 11.1975 11.6297C10.4338 12.3934 9.4341 12.8761 8.3611 12.9992C7.2881 13.1223 6.20505 12.8785 5.28827 12.3075C4.3715 11.7366 3.675 10.8721 3.3122 9.8548C2.94939 8.83753 2.94165 7.7274 3.29022 6.70517L4.04717 6.55388L4.10913 6.61578ZM0.100942 8.23322C0.102464 7.38374 0.245415 6.54043 0.52393 5.7379L1.10737 6.32134C0.678255 7.81062 0.756288 9.40028 1.3292 10.8404C1.90211 12.2805 2.93741 13.4893 4.2723 14.2768C5.60719 15.0643 7.16596 15.3858 8.7035 15.1907C10.241 14.9957 11.6702 14.2951 12.7661 13.1993C13.8621 12.1034 14.5627 10.6743 14.7579 9.1368C14.9531 7.59927 14.6317 6.04048 13.8443 4.70553C13.0569 3.37058 11.8481 2.33519 10.4081 1.76217C8.96805 1.18915 7.3784 1.11099 5.88909 1.53999L5.30572 0.956332C6.84839 0.428595 8.51881 0.404453 10.0761 0.88739C11.6334 1.37033 12.997 2.33538 13.9704 3.64339C14.9438 4.95139 15.4766 6.53475 15.492 8.16512C15.5074 9.79549 15.0046 11.3886 14.056 12.7148C13.1075 14.0409 11.7623 15.0315 10.2144 15.5438C8.66654 16.056 6.99595 16.0634 5.44359 15.5649C3.89123 15.0664 2.53732 14.0877 1.5771 12.77C0.616882 11.4523 0.0999817 9.86366 0.100942 8.23322Z" fill="#888888"/>
<ellipse cx="7.79704" cy="8.22866" rx="1.28262" ry="1.28262" fill="#888888"/>
</g>
<defs>
<clipPath id="clip0_5875_16559">
<rect width="16" height="16" fill="white"/>
</clipPath>
</defs>
</svg>
