<svg width="16" height="16" viewBox="0 0 16 16" fill="none" xmlns="http://www.w3.org/2000/svg">
<g clip-path="url(#clip0_5878_2089)">
<path d="M5.24 2.44618L3.4346 0.640778C3.38766 0.593857 3.32886 0.560558 3.26448 0.544433C3.20009 0.528308 3.13254 0.529961 3.06902 0.549217C3.0055 0.568473 2.9484 0.604608 2.90381 0.65377C2.85922 0.702932 2.8288 0.763275 2.81582 0.828365L2.41248 2.84504L0.395809 3.24837C0.330713 3.26135 0.270361 3.29175 0.221191 3.33634C0.17202 3.38093 0.135875 3.43803 0.116611 3.50155C0.0973476 3.56507 0.0956877 3.63263 0.111809 3.69702C0.12793 3.76141 0.161227 3.82021 0.208148 3.86716L2.01377 5.67241C2.08254 5.74114 2.17577 5.77978 2.273 5.77985C2.29729 5.77988 2.32152 5.77742 2.34531 5.77251L4.40847 5.35935L7.54165 8.4926C7.6107 8.55993 7.70349 8.59735 7.79993 8.59674C7.89637 8.59614 7.98869 8.55756 8.05689 8.48937C8.12509 8.42118 8.16368 8.32887 8.1643 8.23243C8.16491 8.13599 8.12751 8.04319 8.06019 7.97413L4.92694 4.84088L5.34025 2.77772C5.35215 2.71847 5.34923 2.65721 5.33174 2.59936C5.31425 2.54152 5.28274 2.4889 5.24 2.44618ZM2.39327 5.01498L1.21164 3.83262L2.60359 3.55454L3.78536 4.73624L2.39327 5.01498ZM4.30383 4.21777L3.1222 3.036L3.40036 1.64405L4.58257 2.82575L4.30383 4.21777ZM4.10905 6.61578C3.73005 7.47854 3.66447 8.44663 3.92366 9.35263C4.18285 10.2586 4.75051 11.0456 5.52846 11.5773C6.30642 12.1091 7.24576 12.3523 8.18403 12.2649C9.1223 12.1774 10.0005 11.7648 10.6668 11.0984C11.3331 10.432 11.7455 9.55373 11.8328 8.61544C11.9201 7.67715 11.6767 6.73786 11.1448 5.95999C10.6129 5.18213 9.82586 4.61462 8.91982 4.35559C8.01378 4.09656 7.0457 4.16231 6.183 4.54146L6.12111 4.4795L6.27269 3.72255C7.29491 3.37395 8.40504 3.38167 9.42232 3.74445C10.4396 4.10723 11.3041 4.8037 11.8751 5.72046C12.4461 6.63722 12.6899 7.72028 12.5668 8.79327C12.4438 9.86627 11.9611 10.866 11.1974 11.6297C10.4337 12.3934 9.43402 12.8761 8.36102 12.9992C7.28802 13.1223 6.20497 12.8785 5.28819 12.3075C4.37142 11.7366 3.67492 10.8721 3.31212 9.8548C2.94931 8.83753 2.94157 7.7274 3.29014 6.70517L4.04709 6.55388L4.10905 6.61578ZM0.100861 8.23322C0.102384 7.38374 0.245335 6.54043 0.523849 5.7379L1.10729 6.32134C0.678175 7.81062 0.756208 9.40028 1.32912 10.8404C1.90203 12.2805 2.93733 13.4893 4.27222 14.2768C5.60711 15.0643 7.16588 15.3858 8.70342 15.1907C10.241 14.9957 11.6701 14.2951 12.766 13.1993C13.862 12.1034 14.5627 10.6743 14.7578 9.1368C14.953 7.59927 14.6316 6.04048 13.8442 4.70553C13.0568 3.37058 11.8481 2.33519 10.408 1.76217C8.96797 1.18915 7.37832 1.11099 5.88901 1.53999L5.30564 0.956332C6.84831 0.428595 8.51873 0.404453 10.076 0.88739C11.6333 1.37033 12.997 2.33538 13.9703 3.64339C14.9437 4.95139 15.4765 6.53475 15.4919 8.16512C15.5073 9.79549 15.0045 11.3886 14.056 12.7148C13.1074 14.0409 11.7622 15.0315 10.2143 15.5438C8.66646 16.056 6.99587 16.0634 5.44351 15.5649C3.89115 15.0664 2.53724 14.0877 1.57702 12.77C0.616802 11.4523 0.0999016 9.86366 0.100861 8.23322Z" fill="#CCCCCC"/>
<ellipse cx="7.79702" cy="8.22866" rx="1.28262" ry="1.28262" fill="#CCCCCC"/>
</g>
<defs>
<clipPath id="clip0_5878_2089">
<rect width="16" height="16" fill="white"/>
</clipPath>
</defs>
</svg>
