<svg width="32" height="33" viewBox="0 0 32 33" fill="none" xmlns="http://www.w3.org/2000/svg">
<g clip-path="url(#clip0_6169_33221)">
<path d="M16.727 18.8062C16.4624 18.8062 16.1977 18.7224 15.9669 18.5546L14.4839 17.4772C14.3929 17.4111 14.2707 17.4111 14.1797 17.4772L12.6967 18.5546C12.235 18.8901 11.6383 18.8901 11.1766 18.5546C10.7149 18.2191 10.5304 17.6516 10.7067 17.1088L11.2732 15.3654C11.3079 15.2586 11.2701 15.1424 11.1792 15.0763L9.69625 13.9988C9.2345 13.6633 9.05012 13.0957 9.22643 12.5529C9.40281 12.0101 9.88556 11.6594 10.4564 11.6594H12.2894C12.4018 11.6594 12.5007 11.5876 12.5354 11.4807L13.1018 9.73731C13.2782 9.19444 13.7609 8.84375 14.3317 8.84375C14.9026 8.84375 15.3852 9.1945 15.5617 9.73731L16.1281 11.4807C16.1629 11.5876 16.2617 11.6594 16.3741 11.6594H18.2072C18.7779 11.6594 19.2607 12.0101 19.4371 12.553C19.6134 13.0958 19.4291 13.6634 18.9672 13.9988L17.4842 15.0763C17.3933 15.1423 17.3556 15.2585 17.3903 15.3654L17.9567 17.1088C18.1332 17.6516 17.9488 18.2191 17.487 18.5546C17.2562 18.7224 16.9916 18.8062 16.727 18.8062ZM14.3318 16.3924C14.5982 16.3924 14.8646 16.475 15.0919 16.6402L16.5749 17.7177C16.7123 17.8174 16.8332 17.7509 16.879 17.7177C16.9247 17.6845 17.0254 17.5898 16.9729 17.4286L16.4065 15.6852C16.2329 15.1507 16.4216 14.5697 16.8763 14.2394L18.3593 13.1619C18.4965 13.0623 18.4707 12.9265 18.4532 12.8728C18.4358 12.819 18.3769 12.6941 18.2073 12.6941H16.3742C15.8122 12.6941 15.318 12.3349 15.1443 11.8005L14.5779 10.0572C14.5254 9.89588 14.3884 9.87844 14.3319 9.87844C14.2754 9.87844 14.1383 9.89588 14.0859 10.0572L13.5195 11.8005C13.3459 12.335 12.8516 12.6941 12.2896 12.6941H10.4565C10.2869 12.6941 10.228 12.8191 10.2105 12.8728C10.1931 12.9265 10.1672 13.0623 10.3044 13.1619L11.7874 14.2394C12.2421 14.5697 12.4309 15.1507 12.2572 15.6852L11.6908 17.4286C11.6384 17.5899 11.7391 17.6845 11.7847 17.7178C11.8304 17.7509 11.9514 17.8174 12.0888 17.7178L13.5718 16.6403C13.799 16.4751 14.0654 16.3924 14.3318 16.3924Z" fill="#00A49B"/>
<path d="M22.9888 18.3121C22.7242 18.3121 22.4596 18.2282 22.2287 18.0605C21.7669 17.725 21.5825 17.1575 21.7589 16.6147L22.0703 15.6562C22.1051 15.5494 22.0673 15.4332 21.9764 15.367L21.1611 14.7747C20.6993 14.4392 20.515 13.8717 20.6913 13.3289C20.8677 12.786 21.3504 12.4353 21.9212 12.4353H22.929C23.0413 12.4353 23.1402 12.3635 23.1749 12.2566L23.4863 11.2981C23.6628 10.7553 24.1455 10.4045 24.7163 10.4045C25.2871 10.4045 25.7698 10.7553 25.9462 11.2981L26.2577 12.2565C26.2924 12.3634 26.3912 12.4352 26.5036 12.4352H27.5113C28.0821 12.4352 28.5649 12.786 28.7413 13.3288C28.9177 13.8716 28.7333 14.4392 28.2715 14.7746L27.4562 15.367C27.3652 15.433 27.3275 15.5492 27.3622 15.6562L27.6737 16.6146C27.8501 17.1574 27.6657 17.7249 27.2039 18.0604C26.742 18.396 26.1453 18.3959 25.6837 18.0604L24.8683 17.468C24.7774 17.402 24.6552 17.402 24.5642 17.468L23.7489 18.0604C23.518 18.2282 23.2534 18.312 22.9888 18.3121ZM21.9212 13.4698C21.7515 13.4698 21.6927 13.5948 21.6752 13.6485C21.6577 13.7022 21.6319 13.838 21.7691 13.9377L22.5844 14.53C23.039 14.8604 23.2278 15.4414 23.0542 15.9759L22.7428 16.9344C22.6903 17.0957 22.791 17.1903 22.8367 17.2235C22.8824 17.2567 23.0033 17.3232 23.1408 17.2235L23.9561 16.6312C24.4107 16.3009 25.0217 16.3009 25.4763 16.6312L26.2917 17.2235C26.429 17.3233 26.55 17.2567 26.5957 17.2235C26.6414 17.1904 26.7421 17.0957 26.6897 16.9344L26.3782 15.9759C26.2046 15.4414 26.3933 14.8604 26.848 14.5301L27.6633 13.9377C27.8005 13.838 27.7747 13.7023 27.7573 13.6485C27.7398 13.5948 27.6808 13.4699 27.5113 13.4699H26.5035C25.9415 13.4699 25.4473 13.1107 25.2737 12.5763L24.9622 11.6179C24.9098 11.4565 24.7727 11.4391 24.7162 11.4391C24.6597 11.4391 24.5226 11.4565 24.4702 11.6179L24.1588 12.5763C23.9852 13.1108 23.4909 13.4699 22.9289 13.4699L21.9212 13.4698Z" fill="#00A49B"/>
<path d="M5.81841 18.3122C5.55379 18.3122 5.28922 18.2283 5.05829 18.0605L4.24297 17.4682C4.15204 17.402 4.02985 17.4022 3.93891 17.4682L3.1236 18.0605C2.66179 18.396 2.06504 18.396 1.60335 18.0605C1.1416 17.725 0.957223 17.1575 1.13354 16.6147L1.44497 15.6562C1.47972 15.5493 1.44191 15.4331 1.35104 15.367L0.535723 14.7747C0.0739728 14.4392 -0.110402 13.8717 0.0659103 13.3289C0.242285 12.786 0.725035 12.4353 1.29585 12.4353H2.30366C2.41604 12.4353 2.51491 12.3635 2.54966 12.2566L2.8611 11.2981C3.03747 10.7553 3.52022 10.4045 4.09097 10.4045C4.66172 10.4045 5.14454 10.7554 5.32091 11.2981L5.63235 12.2565C5.6671 12.3634 5.76597 12.4352 5.87835 12.4352H6.88616C7.45691 12.4352 7.93972 12.786 8.1161 13.3288C8.29247 13.8716 8.1081 14.4392 7.64629 14.7746L6.83097 15.367C6.74004 15.433 6.70229 15.5492 6.73704 15.6562L7.04847 16.6146C7.22485 17.1574 7.04047 17.725 6.57866 18.0604C6.34772 18.2283 6.08304 18.3122 5.81841 18.3122ZM4.09097 16.3834C4.35741 16.3834 4.62372 16.466 4.8511 16.6312L5.66635 17.2235C5.80354 17.3232 5.92466 17.2568 5.97047 17.2235C6.01616 17.1904 6.11685 17.0957 6.06441 16.9344L5.75297 15.9759C5.57935 15.4414 5.7681 14.8604 6.22279 14.5301L7.0381 13.9377C7.17529 13.838 7.14947 13.7023 7.13204 13.6485C7.11454 13.5948 7.0556 13.4699 6.88604 13.4699H5.87829C5.31629 13.4699 4.82204 13.1107 4.64835 12.5763L4.33691 11.6179C4.28447 11.4565 4.14741 11.4392 4.09091 11.4392C4.03447 11.4392 3.89735 11.4566 3.84497 11.6179L3.53354 12.5764C3.35991 13.1109 2.8656 13.4699 2.3036 13.4699H1.29585C1.12622 13.4699 1.06735 13.5949 1.04985 13.6486C1.03241 13.7024 1.0066 13.8381 1.14379 13.9378L1.95916 14.5302C2.41385 14.8606 2.6026 15.4417 2.42891 15.9761L2.11747 16.9345C2.06504 17.0958 2.16572 17.1904 2.21141 17.2237C2.2571 17.2569 2.37829 17.3233 2.51554 17.2237L3.33085 16.6313C3.55822 16.466 3.82466 16.3834 4.09097 16.3834Z" fill="#00A49B"/>
<path d="M27.2205 27.5478C27.0373 27.552 26.85 27.507 26.677 27.4015L21.0008 23.9392C20.5906 23.689 20.1198 23.5568 19.6393 23.5568H10.0158C8.01921 23.5568 6.3949 21.9325 6.3949 19.9358V19.1206C6.3949 18.8349 6.62652 18.6033 6.91215 18.6033C7.19777 18.6033 7.4294 18.835 7.4294 19.1206V19.9358C7.4294 21.362 8.58965 22.5222 10.0158 22.5222H19.6393C20.3098 22.5222 20.967 22.7068 21.5395 23.056L27.2156 26.5182C27.2225 26.5204 27.2283 26.5169 27.2298 26.5145L27.1669 23.7624C27.1594 23.4333 27.282 23.1225 27.512 22.8871C27.742 22.6518 28.0499 22.5222 28.379 22.5222C29.8051 22.5222 30.9653 21.362 30.9653 19.9358V9.07309C30.9653 7.64696 29.8051 6.48671 28.379 6.48671H10.0158C8.58971 6.48671 7.42946 7.64696 7.42946 9.07309V10.7232C7.42946 11.0089 7.19783 11.2405 6.91221 11.2405C6.62658 11.2405 6.39496 11.0089 6.39496 10.7232V9.07309C6.39496 7.07652 8.01927 5.45215 10.0159 5.45215H28.3791C30.3758 5.45215 32.0001 7.07652 32.0001 9.07309V19.9358C32.0001 21.9324 30.3758 23.5568 28.3791 23.5568C28.281 23.5568 28.1991 23.6409 28.2013 23.7388C28.2013 23.7388 28.2641 26.4843 28.2642 26.4864C28.2778 27.0828 27.7673 27.535 27.2205 27.5478Z" fill="#00A49B"/>
</g>
<defs>
<clipPath id="clip0_6169_33221">
<rect width="32" height="32" fill="white" transform="translate(0 0.5)"/>
</clipPath>
</defs>
</svg>
