<svg width="72" height="71" viewBox="0 0 72 71" fill="none" xmlns="http://www.w3.org/2000/svg">
<g clip-path="url(#clip0_3902_110064)">
<path d="M42.6562 13.3125H16.0312C14.8065 13.3125 13.8125 14.3065 13.8125 15.5312C13.8125 16.756 14.8065 17.75 16.0312 17.75H42.6562C43.881 17.75 44.875 16.756 44.875 15.5312C44.875 14.3065 43.881 13.3125 42.6562 13.3125Z" fill="#DDDDDD"/>
<path d="M33.7812 22.1875H16.0312C14.8065 22.1875 13.8125 23.1815 13.8125 24.4062C13.8125 25.631 14.8065 26.625 16.0312 26.625H33.7812C35.006 26.625 36 25.631 36 24.4062C36 23.1815 35.006 22.1875 33.7812 22.1875Z" fill="#DDDDDD"/>
<path d="M49.3125 0H9.375C4.48044 0 0.5 3.98044 0.5 8.875V53.25C0.5 54.1109 0.997 54.8963 1.778 55.2602C2.07531 55.3978 2.39925 55.4688 2.71875 55.4688C3.22906 55.4688 3.73494 55.2912 4.13875 54.954L16.8344 44.375H49.3125C54.2071 44.375 58.1875 40.3946 58.1875 35.5V8.875C58.1875 3.98044 54.2071 0 49.3125 0ZM53.75 35.5C53.75 37.9451 51.762 39.9375 49.3125 39.9375H16.0312C15.5121 39.9375 15.0106 40.1194 14.6112 40.4523L4.9375 48.5152V8.875C4.9375 6.42994 6.9255 4.4375 9.375 4.4375H49.3125C51.762 4.4375 53.75 6.42994 53.75 8.875V35.5Z" fill="#DDDDDD"/>
<path d="M62.625 17.75C61.4002 17.75 60.4062 18.744 60.4062 19.9688C60.4062 21.1935 61.4002 22.1875 62.625 22.1875C65.0745 22.1875 67.0625 24.1799 67.0625 26.625V64.1618L59.572 58.1712C59.1815 57.8606 58.6889 57.6875 58.1875 57.6875H27.125C24.6755 57.6875 22.6875 55.6951 22.6875 53.25V51.0312C22.6875 49.8065 21.6935 48.8125 20.4688 48.8125C19.244 48.8125 18.25 49.8065 18.25 51.0312V53.25C18.25 58.1446 22.2304 62.125 27.125 62.125H57.4065L67.8923 70.5163C68.2961 70.8358 68.7887 71 69.2812 71C69.6052 71 69.9336 70.929 70.2442 70.7826C71.0119 70.4098 71.5 69.6333 71.5 68.7812V26.625C71.5 21.7304 67.5196 17.75 62.625 17.75Z" fill="#DDDDDD"/>
</g>
<defs>
<clipPath id="clip0_3902_110064">
<rect width="71" height="71" fill="white" transform="translate(0.5)"/>
</clipPath>
</defs>
</svg>
