<svg width="24" height="24" viewBox="0 0 24 24" fill="none" xmlns="http://www.w3.org/2000/svg">
<g clip-path="url(#clip0_6349_6274)">
<path d="M7.35005 10.35C7.85439 10.35 8.34741 10.2004 8.76675 9.92025C9.1861 9.64005 9.51294 9.2418 9.70594 8.77584C9.89895 8.30989 9.94944 7.79717 9.85105 7.30252C9.75266 6.80787 9.50979 6.3535 9.15317 5.99688C8.79655 5.64025 8.34218 5.39739 7.84753 5.299C7.35288 5.20061 6.84016 5.2511 6.37421 5.44411C5.90825 5.63711 5.51 5.96395 5.2298 6.3833C4.9496 6.80264 4.80005 7.29566 4.80005 7.8C4.80104 8.476 5.07002 9.12402 5.54802 9.60203C6.02603 10.08 6.67405 10.349 7.35005 10.35ZM7.35005 6.75C7.55772 6.75 7.76073 6.81158 7.9334 6.92696C8.10607 7.04233 8.24065 7.20632 8.32012 7.39818C8.39959 7.59005 8.42039 7.80117 8.37987 8.00485C8.33936 8.20853 8.23936 8.39562 8.09251 8.54246C7.94567 8.68931 7.75857 8.78931 7.55489 8.82983C7.35121 8.87034 7.14009 8.84955 6.94823 8.77007C6.75637 8.6906 6.59238 8.55602 6.47701 8.38335C6.36163 8.21068 6.30005 8.00767 6.30005 7.8C6.30005 7.66211 6.32721 7.52558 6.37998 7.39818C6.43274 7.27079 6.51009 7.15504 6.60759 7.05754C6.70509 6.96004 6.82084 6.88269 6.94823 6.82993C7.07562 6.77716 7.21216 6.75 7.35005 6.75Z" fill="white"/>
<path d="M23.2838 15.4088C23.2823 14.1683 22.8416 12.9683 22.0399 12.0218C21.2381 11.0752 20.1271 10.4431 18.9037 10.2375V4.5C18.9037 3.90326 18.6667 3.33097 18.2447 2.90901C17.8228 2.48705 17.2505 2.25 16.6537 2.25H2.25C1.65326 2.25 1.08097 2.48705 0.65901 2.90901C0.237053 3.33097 0 3.90326 0 4.5L0 19.5C0 20.0967 0.237053 20.669 0.65901 21.091C1.08097 21.5129 1.65326 21.75 2.25 21.75H16.6537C17.047 21.7483 17.433 21.6435 17.7732 21.4461C18.1134 21.2487 18.3959 20.9656 18.5925 20.625C19.4385 20.534 20.2494 20.238 20.955 19.7625L22.9387 21.75L24 20.6925L22.0687 18.75C22.852 17.8126 23.2819 16.6303 23.2838 15.4088ZM21.7838 15.4088C21.7838 16.1504 21.5638 16.8755 21.1518 17.4921C20.7397 18.1088 20.154 18.5895 19.4688 18.8733C18.7836 19.1571 18.0296 19.2314 17.3022 19.0867C16.5747 18.942 15.9065 18.5848 15.3821 18.0604C14.8577 17.536 14.5005 16.8678 14.3558 16.1403C14.2111 15.4129 14.2854 14.6589 14.5692 13.9737C14.853 13.2885 15.3337 12.7028 15.9504 12.2907C16.567 11.8787 17.2921 11.6588 18.0338 11.6588C19.0283 11.6588 19.9821 12.0538 20.6854 12.7571C21.3887 13.4604 21.7838 14.4142 21.7838 15.4088ZM2.25 3.75H16.6537C16.8527 3.75 17.0434 3.82902 17.1841 3.96967C17.3247 4.11032 17.4037 4.30109 17.4037 4.5V10.2C16.4438 10.3157 15.5349 10.6961 14.7787 11.2987L13.92 10.3088C13.8497 10.2287 13.7632 10.1646 13.6662 10.1207C13.5692 10.0767 13.464 10.0539 13.3575 10.0538C13.2517 10.0557 13.1473 10.0789 13.0507 10.1221C12.954 10.1653 12.8671 10.2275 12.795 10.305L8.51625 15.1088L6.07875 12.6713C6.00558 12.5985 5.9182 12.5417 5.82206 12.5042C5.72591 12.4668 5.62309 12.4496 5.52 12.4537C5.41612 12.4574 5.31415 12.4827 5.22054 12.5279C5.12694 12.5731 5.04375 12.6372 4.97625 12.7162L1.5 16.8187V4.5C1.5 4.30109 1.57902 4.11032 1.71967 3.96967C1.86032 3.82902 2.05109 3.75 2.25 3.75ZM1.5 19.5V19.125L5.595 14.3063L8.02125 16.7325C8.09354 16.8043 8.17971 16.8606 8.27448 16.898C8.36926 16.9354 8.47066 16.9531 8.5725 16.95C8.67459 16.9485 8.7752 16.9254 8.86765 16.8821C8.96011 16.8387 9.04229 16.7763 9.10875 16.6987L13.3463 11.9362L13.7438 12.3937C13.2893 13.0352 12.9847 13.7705 12.8524 14.5455C12.7202 15.3204 12.7636 16.1151 12.9796 16.871C13.1956 17.6269 13.5785 18.3246 14.1002 18.9127C14.6219 19.5008 15.269 19.9642 15.9938 20.2687H2.25C2.14991 20.2688 2.05083 20.2488 1.95859 20.2099C1.86635 20.1711 1.78282 20.1141 1.71293 20.0425C1.64303 19.9708 1.58819 19.8859 1.55162 19.7928C1.51505 19.6996 1.4975 19.6001 1.5 19.5Z" fill="white"/>
</g>
<defs>
<clipPath id="clip0_6349_6274">
<rect width="24" height="24" fill="white"/>
</clipPath>
</defs>
</svg>
