<svg width="16" height="16" viewBox="0 0 16 16" fill="none" xmlns="http://www.w3.org/2000/svg">
<g clip-path="url(#clip0_5875_43873)">
<ellipse cx="7.79702" cy="8.22866" rx="1.28262" ry="1.28262" fill="#888888"/>
<path fill-rule="evenodd" clip-rule="evenodd" d="M3.4346 0.640778L5.24 2.44618C5.28274 2.4889 5.31425 2.54152 5.33174 2.59936C5.34923 2.65721 5.35215 2.71847 5.34025 2.77772L4.92694 4.84088L8.06019 7.97413C8.12751 8.04319 8.16491 8.13599 8.1643 8.23243C8.16368 8.32887 8.12509 8.42118 8.05689 8.48937C7.98869 8.55756 7.89637 8.59614 7.79993 8.59674C7.70349 8.59735 7.6107 8.55993 7.54165 8.4926L4.40847 5.35935L2.34531 5.77251C2.32152 5.77742 2.29729 5.77988 2.273 5.77985C2.17577 5.77978 2.08254 5.74114 2.01377 5.67241L0.208148 3.86716C0.161227 3.82021 0.12793 3.76141 0.111809 3.69702C0.0956877 3.63263 0.0973476 3.56507 0.116611 3.50155C0.135875 3.43803 0.17202 3.38093 0.221191 3.33634C0.270361 3.29175 0.330713 3.26135 0.395809 3.24837L2.41248 2.84504L2.81582 0.828365C2.8288 0.763275 2.85922 0.702932 2.90381 0.65377C2.9484 0.604608 3.0055 0.568473 3.06902 0.549217C3.13254 0.529961 3.20009 0.528308 3.26448 0.544433C3.32886 0.560558 3.38766 0.593857 3.4346 0.640778ZM1.21164 3.83262L2.39327 5.01498L3.78536 4.73624L2.60359 3.55454L1.21164 3.83262ZM3.1222 3.036L4.30383 4.21777L4.58257 2.82575L3.40036 1.64405L3.1222 3.036ZM3.92366 9.35263C3.66447 8.44663 3.73005 7.47854 4.10905 6.61578L4.04709 6.55388L3.29014 6.70517C2.94157 7.7274 2.94931 8.83753 3.31212 9.8548C3.67492 10.8721 4.37142 11.7366 5.28819 12.3075C6.20497 12.8785 7.28802 13.1223 8.36102 12.9992C9.43402 12.8761 10.4337 12.3934 11.1974 11.6297C11.9611 10.866 12.4438 9.86627 12.5668 8.79327C12.6899 7.72028 12.4461 6.63722 11.8751 5.72046C11.3041 4.8037 10.4396 4.10723 9.42232 3.74445C8.40504 3.38167 7.29491 3.37395 6.27269 3.72255L6.12111 4.4795L6.183 4.54146C7.0457 4.16231 8.01378 4.09656 8.91982 4.35559C9.82586 4.61462 10.6129 5.18213 11.1448 5.95999C11.6767 6.73786 11.9201 7.67715 11.8328 8.61544C11.7455 9.55373 11.3331 10.432 10.6668 11.0984C10.0005 11.7648 9.1223 12.1774 8.18403 12.2649C7.24576 12.3523 6.30642 12.1091 5.52846 11.5773C4.75051 11.0456 4.18285 10.2586 3.92366 9.35263ZM0.523849 5.7379C0.245335 6.54043 0.102384 7.38374 0.100861 8.23322C0.0999016 9.86366 0.616802 11.4523 1.57702 12.77C2.53724 14.0877 3.89115 15.0664 5.44351 15.5649C6.99587 16.0634 8.66646 16.056 10.2143 15.5438C11.7622 15.0315 13.1074 14.0409 14.056 12.7148C15.0045 11.3886 15.5073 9.79549 15.4919 8.16512C15.4765 6.53475 14.9437 4.95139 13.9703 3.64339C12.997 2.33538 11.6333 1.37033 10.076 0.88739C8.51873 0.404453 6.84831 0.428595 5.30564 0.956332L5.88901 1.53999C7.37832 1.11099 8.96797 1.18915 10.408 1.76217C11.8481 2.33519 13.0568 3.37058 13.8442 4.70553C14.6316 6.04048 14.953 7.59927 14.7578 9.1368C14.5627 10.6743 13.862 12.1034 12.766 13.1993C11.6701 14.2951 10.241 14.9957 8.70342 15.1907C7.16588 15.3858 5.60711 15.0643 4.27222 14.2768C2.93733 13.4893 1.90203 12.2805 1.32912 10.8404C0.756208 9.40028 0.678175 7.81062 1.10729 6.32134L0.523849 5.7379Z" fill="#888888"/>
<path d="M11.9439 10.8507L11.6671 11.1275L11.3903 10.8507C11.0573 10.5177 10.5174 10.5177 10.1844 10.8507C9.85141 11.1837 9.85141 11.7236 10.1844 12.0566L10.4612 12.3334L10.1844 12.6102C9.85161 12.943 9.85141 13.4825 10.1838 13.8155C10.3507 13.9832 10.5704 14.066 10.7871 14.066C11.0056 14.066 11.2244 13.9815 11.3898 13.8161L11.6666 13.5393L11.9423 13.8149C11.9425 13.8151 11.9427 13.8154 11.943 13.8156C12.1099 13.9832 12.3295 14.066 12.5462 14.066C12.7647 14.066 12.9834 13.9815 13.1489 13.8161C13.4818 13.4831 13.4819 12.9434 13.149 12.6104C13.149 12.6103 13.1489 12.6103 13.1489 12.6102L12.8725 12.3337L13.1497 12.0567L13.1498 12.0566C13.4828 11.7236 13.4828 11.1837 13.1498 10.8507C12.8168 10.5177 12.2769 10.5177 11.9439 10.8507ZM9.11108 12.3334C9.11108 10.9247 10.258 9.77783 11.6666 9.77783C13.0753 9.77783 14.2222 10.9247 14.2222 12.3334C14.2222 13.742 13.0753 14.8889 11.6666 14.8889C10.258 14.8889 9.11108 13.742 9.11108 12.3334Z" fill="#888888" stroke="#888888"/>
</g>
<defs>
<clipPath id="clip0_5875_43873">
<rect width="16" height="16" fill="white"/>
</clipPath>
</defs>
</svg>
