<svg width="344" height="200" viewBox="0 0 344 200" fill="none" xmlns="http://www.w3.org/2000/svg">
<g clip-path="url(#clip0_3831_107735)">
<path d="M70.4304 162.946L106.969 156.631L135.972 167.973C135.972 167.973 158.537 158.118 159.724 159.295C160.912 160.471 111.731 137.865 111.731 137.865L70.4304 162.946Z" fill="url(#paint0_linear_3831_107735)"/>
<path d="M303.094 118.023L279.241 123.605L271.916 115.914L258.663 127.189L250.516 116.125L238.884 132.094L215.276 136.888C221.214 90.3452 212.246 46.5876 172.233 43.791L209.726 43.8909L218.695 49.9391H279.286C298.321 53.8676 303.593 74.1761 304.514 91.5882C305.247 105.76 303.094 118.023 303.094 118.023Z" fill="url(#paint1_linear_3831_107735)"/>
<path d="M215.276 136.888C215.276 136.888 221.181 117.035 219.305 95.8496C216.675 66.2636 196.452 43.791 172.233 43.791C148.014 43.791 128.391 68.6162 128.391 99.2233C128.391 114.26 133.13 115.426 140.811 125.413L215.276 136.888Z" fill="url(#paint2_linear_3831_107735)"/>
<path d="M149.235 137.876L200.225 130.196C200.225 130.196 209.915 114.693 209.915 98.6572C209.915 73.1217 192.09 51.5703 171.278 51.5703C150.467 51.5703 133.596 72.8998 133.596 99.2232C133.585 115.137 139.757 129.22 149.235 137.876Z" fill="url(#paint3_linear_3831_107735)"/>
<path d="M187.339 100.81L147.26 84.4746L120.732 112.907L101.841 98.5685L66.0128 130.074L42.5711 121.441L16.2547 156.631L3.97888 151.903L14.0015 143.957L45.3681 154.445L82.7505 139.973L150.09 121.307L187.339 100.81Z" fill="url(#paint4_linear_3831_107735)"/>
<path d="M93.1728 133.015L78.2332 64.6432L93.972 16.3245L147.26 0L119.667 25.713L117.147 59.7048L96.1474 90.9666L97.7901 132.039L93.1728 133.015Z" fill="url(#paint5_linear_3831_107735)"/>
<path d="M97.668 128.909L65.5245 66.508L19.6955 83.8978L5.85467 38.7197L0.571411 115.925L54.5584 98.7796L78.9102 106.825L95.7256 136.378L97.668 128.909Z" fill="url(#paint6_linear_3831_107735)"/>
<path d="M206.319 79.236L165.241 76.5615L152.499 102.519L119.667 98.7788L96.1474 127.022L68.0884 114.227L45.3682 154.444L70.4304 162.945L118.779 145.189L175.663 164.787L156.716 177.793L135.972 167.972L206.03 135.811C206.03 135.811 217.174 108.5 206.319 79.236Z" fill="url(#paint7_linear_3831_107735)"/>
<path d="M304.503 91.5876L242.136 97.7245C241.692 63.3776 218.695 49.9385 218.695 49.9385H279.286C298.31 53.867 303.593 74.1755 304.503 91.5876Z" fill="url(#paint8_linear_3831_107735)"/>
<path d="M96.1141 133.016L76.1132 134.725L83.0391 150.361L86.1136 136.889L96.1141 133.016Z" fill="url(#paint9_linear_3831_107735)"/>
<path d="M279.241 123.593H271.017L267.543 119.62L271.916 115.902L279.241 123.593Z" fill="url(#paint10_linear_3831_107735)"/>
<path d="M258.663 127.178L250.516 116.113L245.666 122.772L250.072 127.178H258.663Z" fill="url(#paint11_linear_3831_107735)"/>
<path d="M147.26 0L108.845 25.5466L96.1474 90.9666L117.147 59.7048L126.271 23.8819L147.26 0Z" fill="url(#paint12_linear_3831_107735)"/>
<path d="M5.85467 38.7197L16.8208 93.2087L56.9003 80.8904L78.9102 106.825L54.5584 98.7796L0.571411 115.925L5.85467 38.7197Z" fill="url(#paint13_linear_3831_107735)"/>
<path d="M96.1474 127.023L124.229 107.813L140.4 112.163L156.705 121.64L169.713 104.217L187.339 104.972L166.517 97.3145L150.367 107.225L121.698 102.608L96.1474 127.023Z" fill="url(#paint14_linear_3831_107735)"/>
<path d="M250.716 200L248.962 174.586C267.842 173.654 310.342 155.698 310.342 155.698L318.888 158.073L321.929 161.48L334.593 165.886L338.19 173.266L343.429 184.297L250.716 200Z" fill="url(#paint15_linear_3831_107735)"/>
<path d="M304.57 138.586C298.143 180.18 269.818 199.035 238.962 199.989L229.283 189.768L229.228 182.733L222.38 180.846L219.905 174.609L215.576 172.012L217.318 165.165C254.312 173.943 275.357 137.898 265.334 129.431L269.418 127.012L277.898 130.918L288.587 130.241L292.938 135.856L304.57 138.586Z" fill="url(#paint16_linear_3831_107735)"/>
<path d="M298.143 143.003C290.707 190.034 240.616 193.53 240.616 193.53L234.8 189.013L234.045 178.781L226.187 177.139L224.244 169.304L217.307 165.176C245.622 168.527 263.247 147.852 265.323 129.441L276.766 133.093L286.8 131.628L288.876 139.074L298.143 143.003Z" fill="url(#paint17_linear_3831_107735)"/>
<path d="M238.962 199.989L240.616 193.53C257.72 193.53 293.537 176.506 298.143 143.003L304.57 138.586C303.626 176.34 270.007 200.666 238.962 199.989Z" fill="url(#paint18_linear_3831_107735)"/>
</g>
<defs>
<linearGradient id="paint0_linear_3831_107735" x1="150.498" y1="84.4243" x2="107.094" y2="178.481" gradientUnits="userSpaceOnUse">
<stop stop-color="#42B3AE"/>
<stop offset="1" stop-color="white"/>
</linearGradient>
<linearGradient id="paint1_linear_3831_107735" x1="238.443" y1="149.505" x2="238.443" y2="27.4917" gradientUnits="userSpaceOnUse">
<stop stop-color="#42B3AE"/>
<stop offset="1" stop-color="white"/>
</linearGradient>
<linearGradient id="paint2_linear_3831_107735" x1="186.442" y1="112.179" x2="127.718" y2="30.4477" gradientUnits="userSpaceOnUse">
<stop stop-color="#42B3AE"/>
<stop offset="1" stop-color="white"/>
</linearGradient>
<linearGradient id="paint3_linear_3831_107735" x1="-2.73524" y1="44.4962" x2="159.377" y2="93.7833" gradientUnits="userSpaceOnUse">
<stop offset="0.2127" stop-color="#42B3AE"/>
<stop offset="1" stop-color="#034C41"/>
</linearGradient>
<linearGradient id="paint4_linear_3831_107735" x1="-27.6745" y1="148.396" x2="245.518" y2="84.6237" gradientUnits="userSpaceOnUse">
<stop offset="0.2127" stop-color="#42B3AE"/>
<stop offset="1" stop-color="#034C41"/>
</linearGradient>
<linearGradient id="paint5_linear_3831_107735" x1="101.829" y1="24.2063" x2="154.222" y2="144.792" gradientUnits="userSpaceOnUse">
<stop offset="0.2127" stop-color="#42B3AE"/>
<stop offset="1" stop-color="#034C41"/>
</linearGradient>
<linearGradient id="paint6_linear_3831_107735" x1="18.3837" y1="51.7003" x2="75.1038" y2="182.246" gradientUnits="userSpaceOnUse">
<stop offset="0.2127" stop-color="#42B3AE"/>
<stop offset="1" stop-color="#034C41"/>
</linearGradient>
<linearGradient id="paint7_linear_3831_107735" x1="71.4929" y1="154.36" x2="377.427" y2="61.39" gradientUnits="userSpaceOnUse">
<stop offset="0.2127" stop-color="#42B3AE"/>
<stop offset="1" stop-color="#034C41"/>
</linearGradient>
<linearGradient id="paint8_linear_3831_107735" x1="245.386" y1="108.095" x2="274.996" y2="39.9035" gradientUnits="userSpaceOnUse">
<stop stop-color="#42B3AE"/>
<stop offset="1" stop-color="white"/>
</linearGradient>
<linearGradient id="paint9_linear_3831_107735" x1="65.7429" y1="130.021" x2="124.354" y2="158.733" gradientUnits="userSpaceOnUse">
<stop offset="0.2127" stop-color="#42B3AE"/>
<stop offset="1" stop-color="#034C41"/>
</linearGradient>
<linearGradient id="paint10_linear_3831_107735" x1="286.621" y1="91.0197" x2="294.822" y2="72.053" gradientUnits="userSpaceOnUse">
<stop stop-color="#42B3AE"/>
<stop offset="1" stop-color="white"/>
</linearGradient>
<linearGradient id="paint11_linear_3831_107735" x1="270.983" y1="81.4653" x2="282.4" y2="55.0583" gradientUnits="userSpaceOnUse">
<stop stop-color="#42B3AE"/>
<stop offset="1" stop-color="white"/>
</linearGradient>
<linearGradient id="paint12_linear_3831_107735" x1="96.1474" y1="45.4834" x2="147.26" y2="45.4834" gradientUnits="userSpaceOnUse">
<stop stop-color="#00564C"/>
<stop offset="1" stop-color="#00A49B"/>
</linearGradient>
<linearGradient id="paint13_linear_3831_107735" x1="0.571411" y1="77.3225" x2="78.9102" y2="77.3225" gradientUnits="userSpaceOnUse">
<stop stop-color="#00A49B"/>
<stop offset="1" stop-color="#00564C"/>
</linearGradient>
<linearGradient id="paint14_linear_3831_107735" x1="286.677" y1="3.51011" x2="27.2974" y2="200.383" gradientUnits="userSpaceOnUse">
<stop offset="0.2127" stop-color="#42B3AE"/>
<stop offset="0.9278" stop-color="#0A5349"/>
<stop offset="1" stop-color="#034C41"/>
</linearGradient>
<linearGradient id="paint15_linear_3831_107735" x1="268.622" y1="179.553" x2="336.067" y2="169.916" gradientUnits="userSpaceOnUse">
<stop stop-color="#42B3AE"/>
<stop offset="1" stop-color="white"/>
</linearGradient>
<linearGradient id="paint16_linear_3831_107735" x1="289.437" y1="149.804" x2="175.532" y2="205.935" gradientUnits="userSpaceOnUse">
<stop stop-color="#42B3AE"/>
<stop offset="1" stop-color="white"/>
</linearGradient>
<linearGradient id="paint17_linear_3831_107735" x1="362.747" y1="109.374" x2="122.004" y2="229.547" gradientUnits="userSpaceOnUse">
<stop stop-color="#42B3AE"/>
<stop offset="1" stop-color="white"/>
</linearGradient>
<linearGradient id="paint18_linear_3831_107735" x1="282.483" y1="178.495" x2="224.55" y2="128.716" gradientUnits="userSpaceOnUse">
<stop stop-color="#42B3AE"/>
<stop offset="1" stop-color="white"/>
</linearGradient>
<clipPath id="clip0_3831_107735">
<rect width="342.857" height="200" fill="white" transform="translate(0.571411)"/>
</clipPath>
</defs>
</svg>
